<svg width="120" height="120" viewBox="0 0 120 120" fill="none" xmlns="http://www.w3.org/2000/svg">
<path d="M115.338 55.4837C117.886 85.708 95.4496 112.275 65.2248 114.822C35 117.37 8.43318 94.9325 5.88664 64.7083C3.33893 34.484 25.7754 7.91724 56.0003 5.36953C86.2239 2.8224 112.791 25.2595 115.338 55.4837Z" fill="url(#paint0_linear_1744_43710)"/>
<path d="M71.7889 35.2098C71.7889 37.7126 70.4259 38.3103 69.4313 37.8994C68.8787 37.6006 68.584 36.8908 68.584 35.9195V33.0057C68.584 30.9885 67.6262 30.2787 67.1105 30.204C66.2632 29.9425 65.4896 30.3534 64.937 30.8764C64.3844 31.3994 63.9424 32.0718 63.7213 32.4454L61.1795 36.5546V31.5488C61.1795 30.9138 61.0322 30.3908 60.8111 29.9799C60.5901 29.5689 60.2585 29.3075 59.8165 29.1954C59.5586 29.0833 59.1902 29.046 58.785 29.1954C58.3798 29.3448 57.9746 29.681 57.6062 30.2787L51.4542 40.0287C50.6806 38.5345 50.3122 36.8534 50.3122 35.1724C50.3122 29.2327 55.138 24.4511 61.069 24.4138C67.0736 24.4138 71.9363 29.158 71.7889 35.2098ZM74.4781 35.1724C74.4781 35.135 74.4781 35.135 74.4781 35.1724C74.4413 27.7385 68.3998 21.7241 61.0322 21.7241C53.6277 21.7241 47.5862 27.7758 47.5862 35.1724C47.5862 42.6063 53.6277 48.6207 61.0322 48.6207C64.4213 48.6207 67.663 47.3506 70.168 45.0345C70.7206 44.5115 70.7575 43.6896 70.2417 43.1293C70.1312 43.0172 69.9839 42.9052 69.7997 42.8304C69.6523 42.7557 69.4681 42.7184 69.2839 42.7184C69.0997 42.7184 68.9155 42.7557 68.7682 42.7931C68.6208 42.8678 68.4366 42.9425 68.3261 43.0546C66.3369 44.885 63.7213 45.931 61.0322 45.931C57.9009 45.931 55.0644 44.5862 53.1119 42.4195L58.4903 33.9023V37.5632C58.4903 38.5718 58.6745 39.2816 58.9692 39.7299C59.2639 40.1781 59.6691 40.4396 60.0007 40.5144C60.3691 40.6264 60.8111 40.6264 61.29 40.4023C61.7689 40.1781 62.3215 39.6925 62.8372 38.8333L65.9685 33.8276C65.9685 33.8276 65.9685 33.7902 66.0053 33.7902V35.9195C66.0053 37.8247 66.7789 39.3563 68.1419 40.1408C69.3944 40.8132 70.9048 40.7758 72.1941 39.9914C73.7414 39.0201 74.5518 37.2643 74.4781 35.1724Z" fill="white"/>
<path d="M74.4781 35.1724C74.4781 35.135 74.4781 35.135 74.4781 35.1724ZM74.4781 35.1724C74.4413 27.7385 68.3998 21.7241 61.0321 21.7241C53.6277 21.7241 47.5862 27.7758 47.5862 35.1724C47.5862 42.6063 53.6277 48.6207 61.0321 48.6207C64.4213 48.6207 67.663 47.3506 70.168 45.0345C70.7206 44.5115 70.7575 43.6896 70.2417 43.1293C70.1312 43.0172 69.9839 42.9052 69.7997 42.8304C69.6523 42.7557 69.4681 42.7184 69.2839 42.7184C69.0997 42.7184 68.9155 42.7557 68.7682 42.7931C68.6208 42.8678 68.4366 42.9425 68.3261 43.0546C66.3369 44.885 63.7213 45.931 61.0321 45.931C57.9009 45.931 55.0644 44.5862 53.1119 42.4195L58.4903 33.9023V37.5632C58.4903 38.5718 58.6745 39.2816 58.9692 39.7299C59.2639 40.1781 59.6691 40.4396 60.0007 40.5144C60.3691 40.6264 60.8111 40.6264 61.29 40.4023C61.7689 40.1781 62.3215 39.6925 62.8372 38.8333L65.9685 33.8276C65.9685 33.8276 65.9685 33.7902 66.0053 33.7902V35.9195C66.0053 37.8247 66.7789 39.3563 68.1419 40.1408C69.3944 40.8132 70.9048 40.7758 72.1941 39.9914C73.7414 39.0201 74.5518 37.2644 74.4781 35.1724ZM71.7889 35.2098C71.7889 37.7126 70.4259 38.3103 69.4313 37.8994C68.8787 37.6006 68.584 36.8908 68.584 35.9195V33.0057C68.584 30.9885 67.6262 30.2787 67.1105 30.204C66.2632 29.9425 65.4896 30.3534 64.937 30.8764C64.3844 31.3994 63.9424 32.0718 63.7213 32.4454L61.1795 36.5546V31.5488C61.1795 30.9138 61.0322 30.3908 60.8111 29.9799C60.5901 29.5689 60.2585 29.3075 59.8165 29.1954C59.5586 29.0833 59.1902 29.046 58.785 29.1954C58.3798 29.3448 57.9746 29.681 57.6062 30.2787L51.4542 40.0287C50.6806 38.5345 50.3122 36.8534 50.3122 35.1724C50.3122 29.2327 55.138 24.4511 61.069 24.4138C67.0736 24.4138 71.9363 29.158 71.7889 35.2098Z" stroke="#2F7AEC" stroke-width="0.766448"/>
<path d="M29.5133 50.9848C29.707 51.0945 29.8846 51.3611 29.8846 51.5963C29.8846 51.9725 29.5617 52.2861 29.1904 52.2861C29.0935 52.2861 29.0127 52.2547 28.932 52.2391C28.4961 51.9255 27.9471 51.7217 27.3658 51.7217C25.9934 51.7217 25.0569 52.8035 25.0569 54.1518C25.0569 55.5001 26.0095 56.5663 27.3658 56.5663C28.044 56.5663 28.6575 56.2997 29.1096 55.8764C29.2226 55.798 29.368 55.751 29.5133 55.751C29.8847 55.751 30.1753 56.0332 30.1753 56.3938C30.1753 56.629 30.03 56.8328 29.8524 56.9425C29.1904 57.4913 28.3023 57.8519 27.382 57.8519C25.2829 57.8519 23.5714 56.1743 23.5714 54.1048C23.5714 52.0352 25.2829 50.3577 27.382 50.3577C28.157 50.342 28.8997 50.5772 29.5133 50.9848ZM33.3561 52.5526C34.7932 52.5526 35.988 53.7285 35.988 55.1866C35.988 56.629 34.777 57.8675 33.3561 57.8675C31.8545 57.8675 30.6112 56.6446 30.6112 55.1866C30.6112 53.7285 31.8545 52.5526 33.3561 52.5526ZM33.34 56.5663C33.9697 56.5663 34.5025 55.9862 34.5025 55.2022C34.5025 54.4183 33.9697 53.9166 33.34 53.9166C32.6618 53.9166 32.0967 54.4027 32.0967 55.2022C32.0967 55.9705 32.6618 56.5663 33.34 56.5663ZM36.8922 57.0523V53.3522C36.8922 52.9446 37.2151 52.6153 37.6349 52.6153C38.0386 52.6153 38.3777 52.9446 38.3777 53.3522V57.0523C38.3777 57.4599 38.0386 57.7892 37.6349 57.7892C37.2313 57.7892 36.8922 57.4442 36.8922 57.0523ZM36.7792 51.22C36.7792 50.7339 37.1667 50.3577 37.6349 50.3577C38.1193 50.3577 38.5068 50.7496 38.5068 51.22C38.5068 51.6903 38.1193 52.0666 37.6349 52.0666C37.1505 52.0509 36.7792 51.6746 36.7792 51.22ZM41.2194 55.0455V57.0523C41.2194 57.4599 40.8803 57.7892 40.4767 57.7892C40.073 57.7892 39.734 57.4599 39.734 57.0523V53.1798C39.734 52.8662 39.9923 52.6153 40.3152 52.6153C40.6381 52.6153 40.8803 52.8819 40.8803 53.1798C41.4778 52.631 42.0106 52.5526 42.5111 52.5526C43.9966 52.5526 44.6586 53.6344 44.6586 54.873V57.0523C44.6586 57.4599 44.3195 57.7892 43.9159 57.7892C43.5122 57.7892 43.1731 57.4599 43.1731 57.0523V55.0455C43.1731 54.4183 43.0924 53.8853 42.1559 53.8853C41.4939 53.8853 41.2194 54.4183 41.2194 55.0455ZM49.4702 55.8137C49.2926 55.8137 49.1796 55.7353 49.0827 55.6256L47.355 53.8069V57.0523C47.355 57.4599 47.016 57.7892 46.6123 57.7892C46.2087 57.7892 45.8696 57.4599 45.8696 57.0523V50.6242C45.918 50.5145 46.031 50.4361 46.1441 50.4361C46.2732 50.4361 46.3863 50.5458 46.467 50.6242L49.228 53.6344C49.3088 53.7285 49.4056 53.7755 49.4702 53.7755C49.5187 53.7755 49.6317 53.7285 49.7124 53.6344L52.4735 50.6242C52.5542 50.5458 52.6511 50.4361 52.7964 50.4361C52.9256 50.4361 53.0386 50.5145 53.0709 50.6242V57.0523C53.0709 57.4599 52.7479 57.7892 52.3281 57.7892C51.9245 57.7892 51.5854 57.4599 51.5854 57.0523V53.8069L49.8577 55.6256C49.7286 55.7353 49.6155 55.8137 49.4702 55.8137ZM56.6069 56.5663C57.2689 56.5663 57.8341 55.9862 57.8341 55.2022C57.8341 54.4183 57.2528 53.901 56.6069 53.901C55.9611 53.901 55.4282 54.434 55.4282 55.2022C55.4282 55.9548 55.9449 56.5663 56.6069 56.5663ZM58.1893 57.2247L58.157 57.0523C57.8664 57.601 56.946 57.8519 56.3647 57.8519C54.9761 57.8519 53.9428 56.629 53.9428 55.1709C53.9428 53.7285 54.9923 52.5369 56.4455 52.5369C56.6877 52.5369 57.5273 52.5997 58.1731 53.3365L58.2054 53.1641C58.2054 52.8505 58.4476 52.5997 58.7705 52.5997C59.0935 52.5997 59.3518 52.8662 59.3518 53.1641V57.2091C59.3518 57.5226 59.0935 57.7735 58.7705 57.7735C58.4315 57.7892 58.1893 57.5226 58.1893 57.2247ZM63.4369 53.8853H63.2754C62.3389 53.9323 62.1613 54.4497 62.1613 55.0455V57.0523C62.1613 57.4599 61.8222 57.7892 61.4186 57.7892C61.0149 57.7892 60.6758 57.4599 60.6758 57.0523V53.1798C60.6758 52.8662 60.9342 52.6153 61.2571 52.6153C61.58 52.6153 61.8222 52.8819 61.8222 53.1798C62.3712 52.6781 62.8233 52.5683 63.2754 52.5526H63.4207C63.7759 52.5526 64.0989 52.8505 64.0989 53.2268C64.115 53.5717 63.7921 53.8853 63.4369 53.8853ZM69.1688 56.7074C69.2334 56.8171 69.2818 56.9269 69.2818 57.0523C69.2818 57.4286 68.9266 57.7735 68.5391 57.7735C68.2808 57.7735 68.0547 57.5853 67.8771 57.3658L66.1656 55.4374V57.0366C66.1656 57.4442 65.8265 57.7735 65.4229 57.7735C65.0192 57.7735 64.6801 57.4442 64.6801 57.0366V51.1573C64.6801 50.7496 65.0031 50.4204 65.4229 50.4204C65.8427 50.4204 66.1656 50.7496 66.1656 51.1573V54.826L67.8771 52.9916C68.0547 52.8035 68.2646 52.5997 68.523 52.5997C68.8943 52.5997 69.2334 52.9289 69.2334 53.3052C69.2334 53.4149 69.2011 53.5404 69.1365 53.6344L67.7802 55.0768L69.1688 56.7074ZM72.0752 53.901C71.6715 53.901 71.0095 54.1048 71.0095 54.7162H73.157C73.1408 54.1048 72.4627 53.901 72.0752 53.901ZM74.0127 55.6412H71.0095C71.0095 56.5035 71.8653 56.6446 72.2366 56.6446C72.5111 56.6446 72.8986 56.5976 73.2054 56.4565C73.3023 56.3938 73.4476 56.3468 73.5929 56.3468C73.9159 56.3468 74.1904 56.6133 74.1904 56.9425C74.1904 57.162 74.045 57.3502 73.8674 57.4599C73.4153 57.7892 72.8179 57.8675 72.2528 57.8675C70.7512 57.8675 69.5079 57.0836 69.5079 55.2493C69.5079 53.8069 70.2668 52.5526 72.0429 52.5526C73.4799 52.5526 74.5617 53.462 74.594 55.0768C74.594 55.3747 74.3357 55.6412 74.0127 55.6412ZM78.1462 57.8519H77.7426C76.6123 57.8519 75.9503 57.3658 75.9503 55.6569V53.8853H75.5628C75.2076 53.8853 74.9008 53.5717 74.9008 53.2268C74.9008 52.8505 75.2237 52.5526 75.5628 52.5526H75.9503V51.1886C75.9503 50.781 76.2732 50.4517 76.693 50.4517C77.0967 50.4517 77.4358 50.781 77.4358 51.1886V52.5526H78.0493C78.4046 52.5526 78.7113 52.8505 78.7113 53.2268C78.7113 53.5717 78.3884 53.8853 78.0493 53.8853H77.4358V55.3747C77.4358 56.3624 77.4842 56.5663 77.9363 56.5663H78.1462C78.5014 56.5663 78.8082 56.8485 78.8082 57.2091C78.8082 57.554 78.5014 57.8519 78.1462 57.8519ZM85.3314 50.9848C85.5251 51.0945 85.7027 51.3611 85.7027 51.5963C85.7027 51.9725 85.3798 52.2861 85.0084 52.2861C84.9116 52.2861 84.8308 52.2547 84.7501 52.2391C84.3141 51.9255 83.7652 51.7217 83.1839 51.7217C81.8115 51.7217 80.875 52.8035 80.875 54.1518C80.875 55.5001 81.8276 56.5663 83.1839 56.5663C83.862 56.5663 84.4756 56.2997 84.9277 55.8764C85.0407 55.798 85.186 55.751 85.3314 55.751C85.7027 55.751 85.9934 56.0332 85.9934 56.3938C85.9934 56.629 85.8481 56.8328 85.6704 56.9425C85.0084 57.4913 84.1204 57.8519 83.2 57.8519C81.101 57.8519 79.3895 56.1743 79.3895 54.1048C79.3895 52.0352 81.101 50.3577 83.2 50.3577C83.9751 50.342 84.7339 50.5772 85.3314 50.9848ZM89.0935 56.5663C89.7555 56.5663 90.3206 55.9862 90.3206 55.2022C90.3206 54.4183 89.7393 53.901 89.0935 53.901C88.4315 53.901 87.9148 54.434 87.9148 55.2022C87.9148 55.9548 88.4476 56.5663 89.0935 56.5663ZM90.6758 57.2247L90.6435 57.0523C90.3529 57.601 89.4325 57.8519 88.8513 57.8519C87.4627 57.8519 86.4293 56.629 86.4293 55.1709C86.4293 53.7285 87.4788 52.5369 88.932 52.5369C89.1742 52.5369 90.0138 52.5997 90.6597 53.3365L90.692 53.1641C90.692 52.8505 90.9342 52.5997 91.2571 52.5997C91.58 52.5997 91.8384 52.8662 91.8384 53.1641V57.2091C91.8384 57.5226 91.58 57.7735 91.2571 57.7735C90.918 57.7892 90.6758 57.5226 90.6758 57.2247ZM95.8911 56.5663C96.5531 56.5663 97.0698 55.9548 97.0698 55.2022C97.0698 54.4183 96.537 53.901 95.8911 53.901C95.2291 53.901 94.664 54.4183 94.664 55.2022C94.664 55.9862 95.2291 56.5663 95.8911 56.5663ZM94.664 57.4286V59.2629C94.664 59.6706 94.3249 59.9998 93.9212 59.9998C93.5176 59.9998 93.1785 59.6706 93.1785 59.2629V53.1798C93.1785 52.8662 93.4369 52.6153 93.7598 52.6153C94.0827 52.6153 94.3249 52.8819 94.3249 53.2425C94.8739 52.6937 95.552 52.5526 96.0687 52.5526C97.5057 52.5526 98.5714 53.7285 98.5714 55.1866C98.5714 56.629 97.5542 57.8675 96.1495 57.8675C95.7135 57.8519 95.0676 57.7264 94.664 57.4286Z" fill="white"/>
<path d="M113.664 60.0956C113.664 89.3955 89.9125 113.148 60.6119 113.148C31.312 113.148 7.55957 89.3955 7.55957 60.0956C7.55957 30.7956 31.312 7.04321 60.6119 7.04321C89.9125 7.04321 113.664 30.7956 113.664 60.0956Z" stroke="#EEEBD9" stroke-width="0.592492" stroke-miterlimit="10"/>
<path d="M106.496 60.0957C106.496 85.4366 85.9532 105.979 60.6123 105.979C35.2714 105.979 14.7285 85.4366 14.7285 60.0957C14.7285 34.7548 35.2714 14.2119 60.6123 14.2119C85.9532 14.2119 106.496 34.7548 106.496 60.0957Z" stroke="#EEEBD9" stroke-width="0.592492" stroke-miterlimit="10"/>
<path d="M60.6123 8.35597L61.1337 9.95983H62.8205L61.456 10.9517L61.9774 12.5562L60.6123 11.5649L59.2478 12.5562L59.7692 10.9517L58.4041 9.95983H60.0909L60.6123 8.35597Z" fill="white"/>
<path d="M51.6627 9.14927L52.4543 10.6382L54.1162 10.3461L52.9437 11.5589L53.7358 13.0485L52.2202 12.309L51.0477 13.5225L51.2829 11.8522L49.7661 11.1128L51.4281 10.8195L51.6627 9.14927Z" fill="white"/>
<path d="M42.987 11.4849L44.0256 12.8144L45.6111 12.2373L44.6673 13.6362L45.7059 14.9652L44.0843 14.5007L43.141 15.8989L43.0824 14.2133L41.4607 13.7482L43.0456 13.1711L42.987 11.4849Z" fill="white"/>
<path d="M34.8476 15.2913L36.1019 16.4201L37.563 15.5769L36.8763 17.118L38.13 18.2467L36.4527 18.0707L35.766 19.6118L35.4158 17.9611L33.7373 17.7852L35.1984 16.9414L34.8476 15.2913Z" fill="white"/>
<path d="M27.4935 20.4541L28.9244 21.3476L30.2166 20.2633L29.809 21.9004L31.2393 22.7945L29.5566 22.9118L29.1484 24.5488L28.5162 22.9847L26.8335 23.1025L28.1257 22.0183L27.4935 20.4541Z" fill="white"/>
<path d="M21.148 26.8139L22.7121 27.4455L23.7964 26.1533L23.6791 27.8366L25.2433 28.4682L23.6062 28.8764L23.4889 30.5591L22.5942 29.1282L20.9578 29.5364L22.042 28.2442L21.148 26.8139Z" fill="white"/>
<path d="M16.0032 34.18L17.6527 34.5308L18.4964 33.0697L18.6729 34.7476L20.323 35.0984L18.7814 35.7845L18.9579 37.4624L17.8292 36.2087L16.2882 36.8942L17.1313 35.4337L16.0032 34.18Z" fill="white"/>
<path d="M12.2151 42.3274L13.9013 42.3867L14.4784 40.8012L14.9435 42.4228L16.6292 42.4815L15.2309 43.4253L15.6954 45.0464L14.3664 44.0077L12.9681 44.9516L13.5446 43.3661L12.2151 42.3274Z" fill="white"/>
<path d="M9.90015 51.0089L11.5704 50.7743L11.8637 49.1129L12.6031 50.6291L14.2733 50.3945L13.0599 51.5664L13.7993 53.0826L12.3098 52.2905L11.097 53.4624L11.3897 51.8011L9.90015 51.0089Z" fill="white"/>
<path d="M9.12695 59.9607L10.7314 59.4393V57.7525L11.7233 59.117L13.3277 58.5956L12.3359 59.9607L13.3277 61.3252L11.7233 60.8038L10.7314 62.1689V60.4821L9.12695 59.9607Z" fill="white"/>
<path d="M9.91992 68.9102L11.41 68.118L11.1168 66.4567L12.3308 67.6286L13.8197 66.8365L13.0803 68.3526L14.2937 69.5246L12.6235 69.29L11.884 70.8062L11.5914 69.1448L9.91992 68.9102Z" fill="white"/>
<path d="M12.2563 77.586L13.5853 76.5474L13.0082 74.9625L14.4065 75.9057L15.7366 74.8671L15.2709 76.4887L16.6698 77.432L14.9836 77.4907L14.5191 79.1123L13.942 77.5274L12.2563 77.586Z" fill="white"/>
<path d="M16.0625 85.7252L17.1918 84.4709L16.3481 83.0104L17.8886 83.6965L19.0178 82.4428L18.8413 84.1207L20.3824 84.8069L18.7323 85.1576L18.5557 86.835L17.7132 85.3739L16.0625 85.7252Z" fill="white"/>
<path d="M21.2244 93.0786L22.1184 91.6483L21.0342 90.3561L22.6712 90.7638L23.5653 89.3335L23.6826 91.0162L25.3191 91.4244L23.7555 92.0566L23.8734 93.7393L22.7886 92.447L21.2244 93.0786Z" fill="white"/>
<path d="M27.5854 99.425L28.217 97.8609L26.9248 96.7766L28.6075 96.8939L29.2403 95.3303L29.6479 96.9668L31.3306 97.0841L29.9003 97.9788L30.3079 99.6152L29.0163 98.531L27.5854 99.425Z" fill="white"/>
<path d="M34.9514 104.569L35.3021 102.92L33.8411 102.076L35.5184 101.9L35.8698 100.249L36.5553 101.791L38.2332 101.614L36.9795 102.743L37.6656 104.284L36.2051 103.441L34.9514 104.569Z" fill="white"/>
<path d="M43.0985 108.357L43.1572 106.672L41.5723 106.095L43.1933 105.63L43.2526 103.944L44.1958 105.342L45.8175 104.877L44.7788 106.207L45.7221 107.605L44.1372 107.028L43.0985 108.357Z" fill="white"/>
<path d="M51.7804 110.673L51.5451 109.003L49.8838 108.709L51.4 107.97L51.1654 106.3L52.3373 107.513L53.8535 106.773L53.0613 108.263L54.2333 109.477L52.5719 109.183L51.7804 110.673Z" fill="white"/>
<path d="M60.7318 111.445L60.2104 109.841H58.5229L59.8881 108.85L59.3667 107.245L60.7318 108.237L62.0963 107.245L61.5749 108.85L62.94 109.841H61.2526L60.7318 111.445Z" fill="white"/>
<path d="M69.6815 110.652L68.89 109.162L67.228 109.456L68.4 108.242L67.6078 106.752L69.124 107.492L70.2965 106.279L70.0613 107.949L71.5775 108.688L69.9162 108.982L69.6815 110.652Z" fill="white"/>
<path d="M78.3571 108.316L77.3185 106.987L75.733 107.564L76.6768 106.166L75.6382 104.836L77.2598 105.301L78.2031 103.903L78.2617 105.589L79.8834 106.054L78.2979 106.631L78.3571 108.316Z" fill="white"/>
<path d="M86.4956 104.51L85.2418 103.381L83.7807 104.225L84.4675 102.684L83.2131 101.555L84.8911 101.731L85.5778 100.19L85.9279 101.84L87.6059 102.016L86.1454 102.86L86.4956 104.51Z" fill="white"/>
<path d="M93.8503 99.3478L92.4189 98.4537L91.1272 99.5386L91.5349 97.9015L90.104 97.0074L91.7873 96.8901L92.1955 95.2531L92.8277 96.8173L94.5103 96.6994L93.2181 97.7842L93.8503 99.3478Z" fill="white"/>
<path d="M100.195 92.9873L98.6317 92.3557L97.5474 93.6479L97.6648 91.9647L96.1006 91.3325L97.7376 90.9249L97.8549 89.2422L98.749 90.6725L100.386 90.2642L99.3018 91.5564L100.195 92.9873Z" fill="white"/>
<path d="M105.341 85.6216L103.69 85.2708L102.847 86.7319L102.671 85.054L101.021 84.7032L102.562 84.0171L102.386 82.3392L103.515 83.5929L105.056 82.9068L104.212 84.3679L105.341 85.6216Z" fill="white"/>
<path d="M109.129 77.4742L107.443 77.4156L106.866 79.0005L106.401 77.3788L104.714 77.3202L106.113 76.3769L105.649 74.7547L106.978 75.7933L108.376 74.8507L107.799 76.4356L109.129 77.4742Z" fill="white"/>
<path d="M111.444 68.7924L109.774 69.0276L109.48 70.689L108.741 69.1728L107.07 69.4074L108.284 68.2355L107.545 66.7193L109.034 67.5114L110.247 66.3395L109.954 68.0008L111.444 68.7924Z" fill="white"/>
<path d="M112.217 59.841L110.613 60.3624V62.0498L109.621 60.6847L108.016 61.2061L109.008 59.841L108.016 58.4765L109.621 58.9979L110.613 57.6328V59.3196L112.217 59.841Z" fill="white"/>
<path d="M111.423 50.8912L109.934 51.6834L110.226 53.3447L109.013 52.1728L107.524 52.9649L108.263 51.4488L107.05 50.2762L108.72 50.5114L109.46 48.9952L109.752 50.6566L111.423 50.8912Z" fill="white"/>
<path d="M109.088 42.2156L107.759 43.2543L108.336 44.8392L106.937 43.8959L105.607 44.9346L106.073 43.3129L104.674 42.3697L106.36 42.311L106.825 40.6894L107.402 42.2743L109.088 42.2156Z" fill="white"/>
<path d="M105.281 34.0771L104.152 35.3302L104.996 36.7913L103.455 36.1052L102.326 37.3589L102.502 35.6809L100.961 34.9954L102.612 34.6441L102.787 32.9667L103.631 34.4272L105.281 34.0771Z" fill="white"/>
<path d="M100.119 26.722L99.2253 28.1529L100.31 29.4451L98.6725 29.0369L97.7784 30.4678L97.6605 28.7851L96.0234 28.3769L97.5882 27.7447L97.4703 26.062L98.5546 27.3542L100.119 26.722Z" fill="white"/>
<path d="M93.7587 20.3769L93.1271 21.941L94.4187 23.0253L92.7366 22.9074L92.1038 24.4722L91.6962 22.8351L90.0129 22.7172L91.4438 21.8231L91.0362 20.1867L92.3278 21.2709L93.7587 20.3769Z" fill="white"/>
<path d="M86.3924 15.2313L86.0417 16.8814L87.5027 17.7251L85.8248 17.9017L85.4741 19.5518L84.7879 18.0107L83.1106 18.1867L84.3637 17.058L83.6782 15.5169L85.1387 16.3606L86.3924 15.2313Z" fill="white"/>
<path d="M78.2451 11.4438L78.1858 13.1301L79.7713 13.7072L78.1497 14.1723L78.091 15.8579L77.1472 14.4597L75.5261 14.9247L76.5648 13.5952L75.6209 12.1963L77.2064 12.7734L78.2451 11.4438Z" fill="white"/>
<path d="M69.5635 9.12916L69.7987 10.7994L71.4595 11.0927L69.9439 11.8321L70.1785 13.5029L69.0066 12.2889L67.4904 13.0284L68.282 11.5394L67.1106 10.3254L68.7714 10.6187L69.5635 9.12916Z" fill="white"/>
<path d="M47.3928 93.7181V94.4221H43.4482V89.3934H47.3928V90.0974H44.1617V91.5773H47.0498V92.2382H44.1617V93.7181H47.3928Z" fill="white"/>
<path d="M48.7913 94.4221H47.9476L49.4293 92.5327L47.9819 90.6865H48.8256L49.8547 92.0011L50.8837 90.6865H51.7275L50.2868 92.5327L51.7618 94.4221H50.918L49.8547 93.0644L48.7913 94.4221Z" fill="white"/>
<path d="M53.9213 94.4796C52.6796 94.4796 52.1445 93.9049 52.1445 92.5543C52.1445 91.2109 52.6796 90.629 53.9213 90.629C55.0121 90.629 55.5403 91.0672 55.6706 92.0514H55.0052C54.8886 91.527 54.5593 91.2899 53.935 91.2899C53.1461 91.2899 52.8168 91.6635 52.8168 92.5543C52.8168 93.4379 53.1598 93.8187 53.935 93.8187C54.5593 93.8187 54.8886 93.5816 55.0052 93.0572H55.6706C55.5403 94.0557 55.0121 94.4796 53.9213 94.4796Z" fill="white"/>
<path d="M56.4768 94.4221V89.0342H57.1491V91.1894C57.3961 90.8158 57.8282 90.629 58.4456 90.629C59.4815 90.629 59.9343 91.1319 59.9343 92.2813V94.4221H59.2689V92.2813C59.2689 91.5917 58.9464 91.2899 58.2536 91.2899C57.4784 91.2899 57.1491 91.6635 57.1491 92.5543V94.4221H56.4768Z" fill="white"/>
<path d="M62.1734 94.4796C61.2198 94.4796 60.8013 94.1419 60.8013 93.3589C60.8013 92.5471 61.261 92.2238 62.3517 92.2238H63.566C63.566 91.5414 63.2504 91.2468 62.5301 91.2468C61.9538 91.2468 61.6588 91.4336 61.5491 91.8646H60.8837C61.014 91.0026 61.5148 90.629 62.5575 90.629C63.7306 90.629 64.2382 91.1103 64.2382 92.2095V94.4221H63.566V93.9408C63.2984 94.3 62.8319 94.4796 62.1734 94.4796ZM61.4736 93.3302C61.4736 93.7037 61.748 93.8618 62.3311 93.8618C63.1063 93.8618 63.4768 93.5816 63.566 92.9279V92.7554H62.5232C61.8235 92.7554 61.4736 92.9494 61.4736 93.3302Z" fill="white"/>
<path d="M65.2395 94.4221V90.6865H65.9118V91.1894C66.1588 90.8158 66.5909 90.629 67.2083 90.629C68.2442 90.629 68.697 91.1319 68.697 92.2813V94.4221H68.0316V92.2813C68.0316 91.5917 67.7229 91.2899 67.0163 91.2899C66.2274 91.2899 65.9118 91.6635 65.9118 92.5543V94.4221H65.2395Z" fill="white"/>
<path d="M71.1419 90.629C71.7799 90.629 72.2189 90.823 72.4727 91.2109V90.6865H73.145V94.4077C73.145 95.708 72.6031 96.2756 71.3614 96.2756C70.2844 96.2756 69.7561 95.8804 69.6258 94.9681H70.2912C70.4216 95.4207 70.744 95.6146 71.3545 95.6146C72.1434 95.6146 72.4727 95.2483 72.4727 94.3934V93.8977C72.2189 94.2856 71.7799 94.4796 71.1419 94.4796C69.9962 94.4796 69.5092 93.8977 69.5092 92.5543C69.5092 91.2037 69.9962 90.629 71.1419 90.629ZM70.4559 93.5169C70.6342 93.7181 70.9223 93.8187 71.3202 93.8187C71.7181 93.8187 72.0062 93.7181 72.1915 93.5169C72.3698 93.323 72.459 92.9997 72.459 92.5543C72.459 91.6707 72.116 91.2899 71.3202 91.2899C70.5245 91.2899 70.1814 91.6707 70.1814 92.5543C70.1814 92.9997 70.2706 93.323 70.4559 93.5169Z" fill="white"/>
<path d="M74.4031 94.0198C74.115 93.7109 73.9709 93.2224 73.9709 92.5543C73.9709 91.8862 74.115 91.3977 74.4031 91.0888C74.6844 90.7799 75.1508 90.629 75.7888 90.629C77.0579 90.629 77.5862 91.2109 77.5862 92.5543C77.5862 92.6046 77.5793 92.7195 77.5793 92.7698H74.6569C74.7049 93.5169 75.0617 93.8618 75.7957 93.8618C76.3308 93.8618 76.6738 93.6678 76.8178 93.2871H77.5176C77.3255 94.1707 76.7218 94.4796 75.7888 94.4796C75.1508 94.4796 74.6844 94.3287 74.4031 94.0198ZM75.7957 91.2468C75.1097 91.2468 74.7461 91.5414 74.6706 92.2382H76.9139C76.8384 91.527 76.4886 91.2468 75.7957 91.2468Z" fill="white"/>
<path d="M41.7536 69.4633V71.4048H36.9171V81.3845H34.8734V71.4048H30.0369V69.4633H41.7536Z" fill="#05275B"/>
<path d="M44.0006 70.7576C44.9713 69.7869 46.521 69.3101 48.6498 69.3101C50.7786 69.3101 52.3283 69.7869 53.299 70.7576C54.2698 71.7283 54.7466 73.2951 54.7466 75.4239C54.7466 77.5527 54.2698 79.1024 53.299 80.0731C52.3283 81.0439 50.7786 81.5377 48.6498 81.5377C46.521 81.5377 44.9713 81.0439 44.0006 80.0731C43.0298 79.1024 42.536 77.5527 42.536 75.4239C42.536 73.2951 43.0298 71.7283 44.0006 70.7576ZM45.5673 72.2393C44.9202 72.9034 44.5966 73.9763 44.5966 75.4239C44.5966 76.8715 44.9202 77.9273 45.5673 78.5915C46.1974 79.2557 47.2363 79.5963 48.6498 79.5963C50.0633 79.5963 51.1021 79.2557 51.7493 78.5915C52.3794 77.9273 52.703 76.8715 52.703 75.4239C52.703 73.9763 52.3794 72.9034 51.7493 72.2393C51.1021 71.5751 50.0633 71.2515 48.6498 71.2515C47.2363 71.2515 46.1974 71.5751 45.5673 72.2393Z" fill="#05275B"/>
<path d="M59.0095 81.3845H56.9488V69.4633H62.9434C65.8215 69.4633 67.0818 70.6384 67.0818 73.3632C67.0818 76.0881 65.8215 77.2632 62.9434 77.2632H59.0095V81.3845ZM59.0095 71.4048V75.3217H62.8242C64.3399 75.3217 65.0211 74.7257 65.0211 73.3632C65.0211 71.9838 64.374 71.4048 62.8242 71.4048H59.0095Z" fill="#05275B"/>
<path d="M72.7794 77.8933H74.7039C74.7039 79.1705 75.5554 79.7155 77.4798 79.7155C79.3872 79.7155 80.2216 79.1535 80.2216 77.9103C80.2216 76.633 79.319 76.1221 77.1903 76.1221H76.6112V74.4361H77.2924C79.2679 74.4361 80.0854 73.9423 80.0854 72.7672C80.0854 71.6091 79.302 71.1323 77.5309 71.1323C75.7427 71.1323 74.9593 71.6262 74.9593 72.7842H73.0349C73.0349 70.3489 74.3803 69.3101 77.5309 69.3101C80.6814 69.3101 82.0098 70.2808 82.0098 72.5458C82.0098 73.8912 81.4819 74.7938 80.443 75.2706C81.584 75.7815 82.1631 76.7352 82.1631 78.1317C82.1631 80.5159 80.7496 81.5377 77.4798 81.5377C74.193 81.5377 72.7794 80.4308 72.7794 77.8933Z" fill="#05275B"/>
<path d="M85.0744 70.7576C85.9089 69.7869 87.2543 69.3101 89.1106 69.3101C90.9669 69.3101 92.3123 69.7869 93.1467 70.7576C93.9812 71.7283 94.407 73.2951 94.407 75.4239C94.407 77.5527 93.9812 79.1024 93.1467 80.0731C92.3123 81.0439 90.9669 81.5377 89.1106 81.5377C87.2543 81.5377 85.9089 81.0439 85.0744 80.0731C84.24 79.1024 83.8142 77.5527 83.8142 75.4239C83.8142 73.2951 84.24 71.7283 85.0744 70.7576ZM86.5731 72.1541C86.0281 72.8353 85.7556 73.9252 85.7556 75.4239C85.7556 76.9226 86.0281 78.0125 86.5731 78.6937C87.101 79.3749 87.9525 79.7155 89.1106 79.7155C91.4948 79.7155 92.4655 78.4382 92.4655 75.4239C92.4655 72.4096 91.4948 71.1323 89.1106 71.1323C87.9525 71.1323 87.101 71.4729 86.5731 72.1541Z" fill="#05275B"/>
<path d="M39.6479 68.4292V70.3706H34.8113V80.3503H32.7677V70.3706H27.9312V68.4292H39.6479Z" fill="white"/>
<path d="M41.8948 69.7234C42.8656 68.7527 44.4153 68.2759 46.5441 68.2759C48.6729 68.2759 50.2226 68.7527 51.1933 69.7234C52.164 70.6942 52.6409 72.2609 52.6409 74.3897C52.6409 76.5185 52.164 78.0682 51.1933 79.039C50.2226 80.0097 48.6729 80.5036 46.5441 80.5036C44.4153 80.5036 42.8656 80.0097 41.8948 79.039C40.9241 78.0682 40.4302 76.5185 40.4302 74.3897C40.4302 72.2609 40.9241 70.6942 41.8948 69.7234ZM43.4616 71.2051C42.8145 71.8692 42.4909 72.9422 42.4909 74.3897C42.4909 75.8373 42.8145 76.8932 43.4616 77.5573C44.0917 78.2215 45.1306 78.5621 46.5441 78.5621C47.9576 78.5621 48.9964 78.2215 49.6436 77.5573C50.2737 76.8932 50.5973 75.8373 50.5973 74.3897C50.5973 72.9422 50.2737 71.8692 49.6436 71.2051C48.9964 70.5409 47.9576 70.2173 46.5441 70.2173C45.1306 70.2173 44.0917 70.5409 43.4616 71.2051Z" fill="white"/>
<path d="M56.9038 80.3503H54.8431V68.4292H60.8377C63.7158 68.4292 64.9761 69.6042 64.9761 72.3291C64.9761 75.0539 63.7158 76.229 60.8377 76.229H56.9038V80.3503ZM56.9038 70.3706V74.2875H60.7185C62.2342 74.2875 62.9154 73.6915 62.9154 72.3291C62.9154 70.9496 62.2683 70.3706 60.7185 70.3706H56.9038Z" fill="white"/>
<path d="M70.6737 76.8591H72.5981C72.5981 78.1364 73.4496 78.6813 75.3741 78.6813C77.2814 78.6813 78.1159 78.1193 78.1159 76.8761C78.1159 75.5989 77.2133 75.088 75.0845 75.088H74.5055V73.402H75.1867C77.1622 73.402 77.9797 72.9081 77.9797 71.733C77.9797 70.575 77.1963 70.0981 75.4252 70.0981C73.637 70.0981 72.8536 70.592 72.8536 71.75H70.9292C70.9292 69.3147 72.2746 68.2759 75.4252 68.2759C78.5757 68.2759 79.9041 69.2466 79.9041 71.5116C79.9041 72.857 79.3762 73.7596 78.3373 74.2364C79.4783 74.7473 80.0574 75.701 80.0574 77.0975C80.0574 79.4817 78.6439 80.5036 75.3741 80.5036C72.0872 80.5036 70.6737 79.3966 70.6737 76.8591Z" fill="white"/>
<path d="M82.9687 69.7234C83.8032 68.7527 85.1486 68.2759 87.0049 68.2759C88.8612 68.2759 90.2066 68.7527 91.041 69.7234C91.8755 70.6942 92.3013 72.2609 92.3013 74.3897C92.3013 76.5185 91.8755 78.0682 91.041 79.039C90.2066 80.0097 88.8612 80.5036 87.0049 80.5036C85.1486 80.5036 83.8032 80.0097 82.9687 79.039C82.1342 78.0682 81.7085 76.5185 81.7085 74.3897C81.7085 72.2609 82.1342 70.6942 82.9687 69.7234ZM84.4674 71.1199C83.9224 71.8011 83.6499 72.8911 83.6499 74.3897C83.6499 75.8884 83.9224 76.9783 84.4674 77.6595C84.9953 78.3407 85.8468 78.6813 87.0049 78.6813C89.3891 78.6813 90.3598 77.4041 90.3598 74.3897C90.3598 71.3754 89.3891 70.0981 87.0049 70.0981C85.8468 70.0981 84.9953 70.4387 84.4674 71.1199Z" fill="white"/>
<defs>
<linearGradient id="paint0_linear_1744_43710" x1="60.6125" y1="115.019" x2="60.6125" y2="5.17243" gradientUnits="userSpaceOnUse">
<stop stop-color="#0B3D8A"/>
<stop offset="1" stop-color="#347CEB"/>
</linearGradient>
</defs>
</svg>
