<svg width="445" height="24" viewBox="0 0 445 24" fill="none" xmlns="http://www.w3.org/2000/svg">
<path d="M0 22.3271H11.1992V18.5453H10.0867C9.71584 18.5453 9.27084 17.9635 9.27084 17.6726V5.6726C9.27084 5.30896 9.79 4.79986 10.0867 4.79986H11.1992V0.872592H0V4.79986H1.03833C1.48333 4.79986 1.92833 5.38168 1.92833 5.6726V17.5999C1.92833 17.9635 1.40917 18.4726 1.03833 18.4726H0V22.3271ZM11.9408 22.3271H22.1017V18.5453H20.2475V10.9817C20.7667 10.9089 21.1375 10.909 21.5083 10.909C22.8434 10.909 23.5109 11.1271 23.5109 12.2908V22.2544H31.595V18.4726H31.0759C30.705 18.4726 30.26 17.9635 30.26 17.6726V9.6726C30.26 6.69077 28.1834 5.81807 25.9584 5.81807C23.3625 5.81807 21.5083 6.90898 20.025 8.36351C19.8767 6.61805 19.4317 6.10897 18.8383 6.10897H11.7183V10.109H12.6083C12.9792 10.109 13.4242 10.6181 13.4242 10.909V17.7453C13.4242 17.9635 12.905 18.5453 12.6083 18.5453H11.7925C11.9408 18.6181 11.9408 22.3271 11.9408 22.3271ZM31.7434 10.2544H33.375V18.0362C33.375 21.8181 35.8225 22.7634 39.4566 22.7634C40.94 22.7634 42.2009 22.5453 43.0909 22.2544V18.6181H42.275C40.7916 18.6181 40.3466 18.1817 40.3466 16.7999V10.3271H43.0166V6.32713H40.3466V2.03623H33.5234V6.25441H31.8916L31.7434 10.2544ZM60.52 15.7089C60.52 15.4908 60.5941 14.909 60.5941 14.109C60.5941 8.43623 57.9241 5.96351 52.4359 5.96351C46.8734 5.96351 43.5359 9.23623 43.5359 14.3271C43.5359 19.418 46.1316 22.5453 52.51 22.5453C56.2925 22.5453 58.4434 21.8907 60.0009 21.0908V17.309H56.3666C55.6991 18.109 54.9575 18.6181 53.2516 18.6181C51.3975 18.6181 50.5816 17.7453 50.4334 15.7089C50.3591 15.7089 60.52 15.7089 60.52 15.7089ZM52.51 9.6726C53.6966 9.6726 54.2159 10.4726 54.3641 12.4362H50.4334C50.73 10.5453 51.2491 9.6726 52.51 9.6726ZM61.5584 22.3271H71.5709V18.5453H69.865V11.709C70.755 11.4908 72.2384 11.1999 74.315 11.1999H75.0566V6.25441C74.5375 6.10895 74.315 6.10897 74.1666 6.10897C72.09 6.10897 70.9775 7.12714 69.865 8.50895C69.7166 6.76349 69.2716 6.25441 68.6784 6.25441H61.5584V10.2544H62.4484C62.8191 10.2544 63.2641 10.7635 63.2641 11.0544V17.8908C63.2641 18.2544 62.745 18.6908 62.4484 18.6908H61.6325L61.5584 22.3271ZM76.0209 22.3271H86.1816V18.5453H84.3275V10.9817C84.8466 10.9089 85.2175 10.909 85.5884 10.909C86.9234 10.909 87.5909 11.1271 87.5909 12.2908V22.2544H95.675V18.4726H95.1559C94.785 18.4726 94.34 17.9635 94.34 17.6726V9.6726C94.34 6.69077 92.2634 5.81807 90.0384 5.81807C87.4425 5.81807 85.5884 6.90898 84.1791 8.36351C84.0309 6.61805 83.5859 6.10897 82.9925 6.10897H75.8725V10.109H76.7625C77.1334 10.109 77.5784 10.6181 77.5784 10.909V17.7453C77.5784 17.9635 77.0591 18.5453 76.7625 18.5453H75.9466C76.0209 18.6181 76.0209 22.3271 76.0209 22.3271ZM101.534 22.5453C103.537 22.5453 105.094 21.9636 106.207 20.6544C106.8 21.8181 107.838 22.5453 109.915 22.5453C111.547 22.5453 112.733 22.1818 113.772 21.6726V18.5453H113.178C112.807 18.5453 112.437 18.0362 112.437 17.7453V11.3453C112.437 7.5635 110.137 5.89076 105.02 5.89076C101.682 5.89076 99.0866 6.47259 97.3066 6.98167V11.4908H100.051C100.718 10.909 101.534 10.3999 103.24 10.3999C104.872 10.3999 105.539 10.9817 105.539 12.0726V12.9453C104.649 12.7999 103.759 12.7271 102.572 12.7271C98.7159 12.7271 96.2684 14.1817 96.2684 17.7453C96.4166 21.0908 98.7159 22.5453 101.534 22.5453ZM104.278 18.7635C103.462 18.7635 102.795 18.3999 102.795 17.309C102.795 16.1453 103.388 15.7089 104.501 15.7089C104.946 15.7089 105.391 15.7817 105.762 15.8544V18.3271C105.317 18.6181 104.872 18.7635 104.278 18.7635ZM113.994 10.2544H115.626V18.0362C115.626 21.8181 118.073 22.7634 121.707 22.7634C123.191 22.7634 124.452 22.5453 125.342 22.2544V18.6181H124.452C122.968 18.6181 122.523 18.1817 122.523 16.7999V10.3271H125.193V6.32713H122.523V2.03623H115.7V6.25441H114.068V10.2544H113.994ZM126.009 22.3271H135.947V18.5453H135.132C134.761 18.5453 134.316 18.0362 134.316 17.7453V7.78168C134.316 6.76349 133.945 6.18169 133.426 6.18169H125.935V10.1817H126.825C127.196 10.1817 127.567 10.6908 127.567 10.9817V17.8181C127.567 18.1817 127.122 18.6181 126.825 18.6181H126.009V22.2544V22.3271ZM130.904 5.6726C132.758 5.6726 134.019 4.5817 134.019 2.90896C134.019 1.23624 132.758 -0.00012207 130.904 -0.00012207C129.05 -0.00012207 127.789 1.16351 127.789 2.90896C127.789 4.43623 129.124 5.6726 130.904 5.6726ZM145.663 22.6181C151.003 22.6181 154.934 19.5635 154.934 14.3999C154.934 9.30895 151.077 6.03623 145.663 6.03623C140.249 6.03623 136.467 9.30895 136.467 14.3999C136.541 19.4908 140.397 22.6181 145.663 22.6181ZM145.663 18.6181C144.254 18.6181 143.29 17.309 143.29 14.3271C143.29 11.3453 144.18 10.109 145.663 10.109C147.147 10.109 148.037 11.3453 148.037 14.3271C148.111 17.3817 147.072 18.6181 145.663 18.6181ZM155.602 22.3271H165.762V18.5453H163.908V10.9817C164.428 10.9089 164.798 10.909 165.169 10.909C166.504 10.909 167.172 11.1271 167.172 12.2908V22.2544H175.256V18.4726H174.737C174.366 18.4726 173.921 17.9635 173.921 17.6726V9.6726C173.921 6.69077 171.844 5.81807 169.619 5.81807C167.023 5.81807 165.169 6.90898 163.686 8.36351C163.538 6.61805 163.092 6.10897 162.499 6.10897H155.379V10.109H156.269C156.64 10.109 157.085 10.6181 157.085 10.909V17.7453C157.085 17.9635 156.566 18.5453 156.269 18.5453H155.453C155.602 18.6181 155.602 22.3271 155.602 22.3271ZM181.115 22.5453C183.117 22.5453 184.675 21.9636 185.787 20.6544C186.381 21.8181 187.419 22.5453 189.496 22.5453C191.128 22.5453 192.314 22.1818 193.352 21.6726V18.5453H192.759C192.388 18.5453 192.018 18.0362 192.018 17.7453V11.3453C192.018 7.5635 189.718 5.89076 184.601 5.89076C181.263 5.89076 178.667 6.47259 176.887 6.98167V11.4908H179.632C180.299 10.909 181.115 10.3999 182.821 10.3999C184.452 10.3999 185.12 10.9817 185.12 12.0726V12.9453C184.23 12.7999 183.34 12.7271 182.153 12.7271C178.297 12.7271 175.849 14.1817 175.849 17.7453C176.072 21.0908 178.445 22.5453 181.115 22.5453ZM183.933 18.7635C183.043 18.7635 182.45 18.3999 182.45 17.309C182.45 16.1453 183.043 15.7089 184.156 15.7089C184.601 15.7089 185.046 15.7817 185.417 15.8544V18.3271C184.897 18.6181 184.452 18.7635 183.933 18.7635ZM194.168 22.3271H204.255V18.5453H203.365C202.994 18.5453 202.623 18.0362 202.623 17.7453V2.25442C202.623 1.45441 202.178 0.945323 201.733 0.945323H194.168V4.8726H195.058C195.429 4.8726 195.8 5.38168 195.8 5.6726V17.7453C195.8 18.109 195.355 18.5453 195.058 18.5453H194.168V22.2544C194.094 22.3271 194.168 22.3271 194.168 22.3271ZM209.892 22.3271H220.497C226.356 22.3271 229.992 20.2908 229.992 16.1453C229.992 13.2362 228.212 11.709 225.021 11.1999V11.0544C227.691 10.3999 229.397 9.16351 229.397 6.54533C229.397 2.83624 226.282 1.01806 220.497 1.01806H209.966V4.8726H210.856C211.301 4.8726 211.746 5.45442 211.746 5.74533V17.6726C211.746 18.0362 211.227 18.5453 210.856 18.5453H209.966V22.2544H209.892V22.3271ZM218.792 18.3999V13.309H219.978C221.907 13.309 222.649 14.109 222.649 15.8544C222.649 17.5999 221.907 18.4726 219.978 18.4726H218.792V18.3999ZM218.792 5.01806H219.904C221.684 5.01806 222.352 5.81805 222.352 7.34532C222.352 8.79987 221.61 9.6726 219.904 9.6726H218.792V5.01806ZM236.222 22.6181C238.892 22.6181 240.596 21.5999 242.007 20.1453C242.153 21.8907 242.674 22.3999 243.192 22.3999H250.163V18.6181H249.422C249.051 18.6181 248.682 18.109 248.682 17.8181V6.32713H240.3V10.3271H241.931V17.7453C241.412 17.8181 241.041 17.8908 240.745 17.8908C239.41 17.8908 238.742 17.6726 238.742 16.4362V6.39987H230.583V10.3999H231.251C231.473 10.3999 231.994 10.909 231.994 11.1999V18.8362C231.845 21.8181 233.997 22.6181 236.222 22.6181ZM257.728 22.6181C263.217 22.6181 265.516 20.5817 265.516 16.8726C265.516 13.0908 263.44 12.1453 259.286 11.709C257.359 11.4908 256.765 11.2726 256.765 10.8362C256.765 10.2544 257.283 9.9635 258.618 9.9635C259.88 9.9635 260.697 10.3999 261.288 11.0544H264.848V6.83623C263.217 6.32715 261.438 6.03623 258.472 6.03623C253.946 6.03623 250.907 7.78168 250.907 11.4908C250.907 15.1271 252.982 16.3635 256.543 16.7272C258.618 16.9453 259.212 17.1635 259.212 17.8181C259.212 18.5453 258.472 18.6908 257.359 18.6908C256.171 18.6908 254.985 18.109 254.54 17.309H250.907V21.7453C252.388 22.1089 254.391 22.6181 257.728 22.6181ZM266.482 22.3271H276.418V18.5453H275.604C275.232 18.5453 274.787 18.0362 274.787 17.7453V7.78168C274.787 6.76349 274.416 6.18169 273.897 6.18169H266.406V10.1817H267.296C267.667 10.1817 268.039 10.6908 268.039 10.9817V17.8181C268.039 18.1817 267.594 18.6181 267.296 18.6181H266.482V22.3271ZM271.377 5.6726C273.23 5.6726 274.565 4.5817 274.565 2.90896C274.565 1.23624 273.303 -0.00012207 271.377 -0.00012207C269.521 -0.00012207 268.262 1.16351 268.262 2.90896C268.262 4.43623 269.597 5.6726 271.377 5.6726ZM277.235 22.3271H287.321V18.5453H285.467V10.9817C285.986 10.9089 286.357 10.909 286.729 10.909C288.064 10.909 288.732 11.1271 288.732 12.2908V22.2544H296.815V18.4726H296.297C295.925 18.4726 295.48 17.9635 295.48 17.6726V9.6726C295.48 6.69077 293.404 5.81807 291.179 5.81807C288.582 5.81807 286.729 6.90898 285.245 8.36351C285.096 6.61805 284.651 6.10897 284.059 6.10897H276.939V10.109H277.829C278.198 10.109 278.643 10.6181 278.643 10.909V17.7453C278.643 17.9635 278.125 18.5453 277.829 18.5453H277.012C277.235 18.6181 277.235 22.3271 277.235 22.3271ZM314.319 15.7089C314.319 15.4908 314.392 14.909 314.392 14.109C314.392 8.43623 311.796 5.96351 306.233 5.96351C300.671 5.96351 297.333 9.23623 297.333 14.3271C297.333 19.418 299.93 22.5453 306.309 22.5453C310.092 22.5453 312.241 21.8907 313.725 21.0908V17.309H310.092C309.424 18.109 308.681 18.6181 306.977 18.6181C305.121 18.6181 304.307 17.7453 304.157 15.7089H314.319ZM306.309 9.6726C307.495 9.6726 308.013 10.4726 308.162 12.4362H304.231C304.453 10.5453 305.048 9.6726 306.309 9.6726ZM322.18 22.6181C327.669 22.6181 329.967 20.5817 329.967 16.8726C329.967 13.0908 327.892 12.1453 323.737 11.709C321.808 11.4908 321.29 11.2726 321.29 10.8362C321.29 10.2544 321.808 9.9635 323.143 9.9635C324.405 9.9635 325.222 10.3999 325.74 11.0544H329.3V6.83623C327.669 6.32715 325.889 6.03623 322.921 6.03623C318.397 6.03623 315.356 7.78168 315.356 11.4908C315.356 15.1271 317.434 16.3635 320.994 16.7272C323.07 16.9453 323.664 17.1635 323.664 17.8181C323.664 18.5453 322.921 18.6908 321.808 18.6908C320.622 18.6908 319.361 18.109 318.992 17.309H315.356V21.7453C316.767 22.1089 318.769 22.6181 322.18 22.6181ZM337.532 22.6181C343.022 22.6181 345.32 20.5817 345.32 16.8726C345.32 13.0908 343.244 12.1453 339.09 11.709C337.161 11.4908 336.569 11.2726 336.569 10.8362C336.569 10.2544 337.087 9.9635 338.422 9.9635C339.684 9.9635 340.498 10.3999 341.092 11.0544H344.652V6.83623C343.022 6.32715 341.242 6.03623 338.273 6.03623C333.75 6.03623 330.708 7.78168 330.708 11.4908C330.708 15.1271 332.787 16.3635 336.347 16.7272C338.423 16.9453 339.017 17.1635 339.017 17.8181C339.017 18.5453 338.273 18.6908 337.161 18.6908C335.975 18.6908 334.789 18.109 334.344 17.309H330.708V21.7453C332.266 22.1089 334.268 22.6181 337.532 22.6181ZM355.628 22.3271H366.68V18.5453H365.641C365.196 18.5453 364.751 17.9635 364.751 17.6726V5.09078H366.531L367.052 9.01805H371.426V1.01806H351.105V9.01805H355.482L356 5.09078H357.78V17.6726C357.78 18.0362 357.262 18.5453 356.89 18.5453H355.851L355.628 22.3271ZM372.316 22.3271H382.255V18.5453H381.438C381.069 18.5453 380.624 18.0362 380.624 17.7453V7.78168C380.624 6.76349 380.253 6.18169 379.734 6.18169H372.242V10.1817H373.132C373.504 10.1817 373.873 10.6908 373.873 10.9817V17.8181C373.873 18.1817 373.428 18.6181 373.132 18.6181H372.316V22.3271ZM377.211 5.6726C379.067 5.6726 380.402 4.5817 380.402 2.90896C380.402 1.23624 379.14 -0.00012207 377.211 -0.00012207C375.357 -0.00012207 374.096 1.16351 374.096 2.90896C374.172 4.43623 375.431 5.6726 377.211 5.6726ZM383.072 22.3271H392.862V18.5453H391.451V10.9817C391.972 10.9089 392.341 10.909 392.639 10.909C394.047 10.909 394.343 11.1271 394.343 12.2908V22.2544H402.502V18.4726H401.094V10.909C401.612 10.8362 401.984 10.8362 402.28 10.8362C403.688 10.8362 403.911 11.0544 403.911 12.2181V22.1818H411.997V18.3999H411.476C411.107 18.3999 410.662 17.8908 410.662 17.5999V9.59986C410.662 6.61805 408.659 5.74533 406.434 5.74533C403.764 5.74533 402.131 6.9817 400.872 8.36351C400.351 6.32715 398.571 5.74533 396.791 5.74533C394.197 5.74533 392.49 6.9817 391.228 8.36351C391.082 6.47261 390.637 5.96351 390.042 5.96351H382.922V9.9635H383.812C384.184 9.9635 384.629 10.4726 384.629 10.7635V17.5999C384.629 17.818 384.108 18.3999 383.812 18.3999H382.996V22.2544C382.849 22.3271 383.072 22.3271 383.072 22.3271ZM429.352 15.7089C429.352 15.4908 429.425 14.909 429.425 14.109C429.425 8.43623 426.828 5.96351 421.266 5.96351C415.779 5.96351 412.366 9.23623 412.366 14.3271C412.366 19.418 414.962 22.5453 421.342 22.5453C425.124 22.5453 427.273 21.8907 428.757 21.0908V17.309H425.124C424.457 18.109 423.713 18.6181 422.009 18.6181C420.153 18.6181 419.339 17.7453 419.19 15.7089H429.352ZM421.266 9.6726C422.454 9.6726 422.973 10.4726 423.122 12.4362H419.19C419.412 10.5453 420.08 9.6726 421.266 9.6726ZM437.212 22.6181C442.702 22.6181 445 20.5817 445 16.8726C445 13.0908 442.924 12.1453 438.77 11.709C436.841 11.4908 436.323 11.2726 436.323 10.8362C436.323 10.2544 436.841 9.9635 438.176 9.9635C439.437 9.9635 440.254 10.3999 440.772 11.0544H444.332V6.83623C442.702 6.32715 440.922 6.03623 437.953 6.03623C433.43 6.03623 430.388 7.78168 430.388 11.4908C430.388 15.1271 432.467 16.3635 436.027 16.7272C438.102 16.9453 438.697 17.1635 438.697 17.8181C438.697 18.5453 437.953 18.6908 436.841 18.6908C435.655 18.6908 434.393 18.109 434.024 17.309H430.388V21.7453C431.799 22.1089 433.802 22.6181 437.212 22.6181Z" fill="#6F7394"/>
</svg>
