<svg width="80" height="81" viewBox="0 0 80 81" fill="none" xmlns="http://www.w3.org/2000/svg">
<rect y="0.307617" width="80" height="80" rx="16" fill="#4091DC" fill-opacity="0.1"/>
<path d="M39.9997 56.9742C30.7949 56.9742 23.333 49.5123 23.333 40.3075C23.333 31.1028 30.7949 23.6409 39.9997 23.6409C49.2044 23.6409 56.6663 31.1028 56.6663 40.3075C56.6663 49.5123 49.2044 56.9742 39.9997 56.9742ZM39.9997 53.6409C47.3635 53.6409 53.333 47.6713 53.333 40.3075C53.333 32.9437 47.3635 26.9742 39.9997 26.9742C32.6359 26.9742 26.6663 32.9437 26.6663 40.3075C26.6663 47.6713 32.6359 53.6409 39.9997 53.6409ZM39.9997 46.9742C36.3178 46.9742 33.333 43.9894 33.333 40.3075C33.333 36.6256 36.3178 33.6409 39.9997 33.6409C43.6816 33.6409 46.6663 36.6256 46.6663 40.3075C46.6663 43.9894 43.6816 46.9742 39.9997 46.9742ZM39.9997 43.6409C41.8406 43.6409 43.333 42.1485 43.333 40.3075C43.333 38.4666 41.8406 36.9742 39.9997 36.9742C38.1587 36.9742 36.6663 38.4666 36.6663 40.3075C36.6663 42.1485 38.1587 43.6409 39.9997 43.6409Z" fill="#0084FF"/>
</svg>
