<svg width="119" height="32" viewBox="0 0 119 32" fill="none" xmlns="http://www.w3.org/2000/svg">
<g clip-path="url(#clip0_4388_398525)">
<path d="M29.519 31.1479C27.4479 30.8448 25.6365 29.9639 24.2532 28.5871C23.0993 27.4386 22.3512 26.1756 21.7997 24.445C20.9387 21.7432 20.9384 18.2694 21.799 15.6226C22.6329 13.0576 24.5106 10.8248 26.8087 9.66556C29.9913 8.06023 34.4706 8.16108 37.4181 9.90447C40.0708 11.4734 41.6777 14.2613 42.1247 18.0702C42.2613 19.2332 42.1727 21.6896 41.9577 22.7035C41.0778 26.8537 38.5152 29.7527 34.7607 30.8454C34.3561 30.9632 33.7288 31.1009 33.3666 31.1515C32.6001 31.2587 30.2609 31.2565 29.519 31.1479ZM32.6176 29.4814C33.2226 29.3008 33.9688 28.5976 34.3667 27.8331C35.1882 26.2547 35.555 23.9206 35.5641 20.2145C35.5755 15.5697 34.8508 12.6141 33.3214 11.0666C32.6792 10.4167 32.2238 10.2149 31.4026 10.2162C29.5801 10.2192 28.4234 12.1309 27.9664 15.8955C27.7563 17.626 27.7552 21.7484 27.9644 23.2614C28.6119 27.9437 30.2833 30.1779 32.6176 29.4814ZM66.2027 31.1468C65.3553 31.0605 62.7659 30.6275 61.8614 30.4208L61.2356 30.2779L61.2844 26.9199C61.4019 18.8351 61.4167 14.4217 61.3406 10.1296C61.2661 5.92491 61.2444 5.48036 61.083 4.8584C60.8786 4.07033 60.5835 3.52061 60.2286 3.26666C60.0907 3.168 59.7161 3.02818 59.3962 2.95595C58.3325 2.71589 58.3904 2.75438 58.362 2.26683C58.3456 1.98598 58.3759 1.80045 58.4474 1.74352C58.5432 1.6672 67.2663 -0.00480819 67.5442 -0.000112197C67.6241 0.00123705 67.6353 1.12204 67.5944 4.97975C67.5654 7.71771 67.5617 9.95786 67.5861 9.95786C67.6106 9.95786 67.9294 9.81916 68.2945 9.64965C69.395 9.13874 70.4095 8.91702 71.8827 8.86539C72.8636 8.83104 73.318 8.85259 73.8212 8.95718C77.1117 9.64131 79.5466 12.3476 80.3976 16.2663C80.6196 17.2886 80.7021 19.8292 80.5548 21.1018C80.4292 22.1864 80.0707 23.6478 79.6978 24.5962C78.2905 28.1748 75.2711 30.5094 71.2656 31.1162C70.3429 31.2559 67.4456 31.2735 66.2027 31.1468ZM69.626 29.4399C70.2465 29.3216 70.7286 29.0735 71.2461 28.6059C72.5432 27.434 73.5185 25.0145 73.9021 22.017C74.0583 20.796 74.0373 18.0139 73.8641 16.9949C73.3958 14.2388 72.3893 12.4273 70.9212 11.698C70.3121 11.3954 70.2181 11.374 69.4958 11.374C68.9791 11.374 68.5346 11.4296 68.1568 11.5415L67.5911 11.709L67.5493 14.8459C67.4958 18.8644 67.6259 28.9246 67.7351 29.2133C67.8048 29.3974 67.8815 29.4365 68.2273 29.4638C69.0413 29.528 69.176 29.5257 69.626 29.4399ZM90.7593 31.1044C86.5214 30.3363 83.4913 27.3168 82.5011 22.8759C82.3737 22.3047 82.3174 21.6656 82.2855 20.4291C82.235 18.4729 82.3933 17.2587 82.8957 15.75C83.8606 12.8533 85.5895 10.8006 88.1002 9.57024C90.7509 8.27172 94.3754 8.18667 96.721 9.36796C99.3616 10.698 100.916 13.3536 101.31 17.2105C101.364 17.7297 101.394 18.3478 101.379 18.5837L101.35 19.0129L95.0299 19.0349L88.7095 19.0569L88.7338 19.8074C88.7891 21.5457 89.1612 23.0833 89.8492 24.4202C90.1618 25.0278 90.4107 25.359 91.0157 25.9725C92.3817 27.3584 93.7402 27.895 95.8838 27.895C97.4384 27.895 98.5563 27.5833 99.7254 26.8239C100.052 26.6112 100.384 26.4372 100.462 26.4372C100.64 26.4372 101.052 26.9686 101.052 27.1995C101.052 27.5776 99.8259 28.7973 98.6309 29.6087C97.6521 30.2732 96.0992 30.8749 94.7533 31.1115C93.8106 31.2773 91.692 31.2735 90.7593 31.1044ZM93.441 17.1142L94.9268 17.0622L94.874 16.0015C94.6855 12.2611 93.7745 10.2171 92.2971 10.2187C90.6906 10.2204 89.4076 12.2948 88.8746 15.7514C88.8084 16.1762 88.7547 16.68 88.7539 16.871L88.7522 17.2181L90.3537 17.1921C91.2345 17.1778 92.6239 17.1427 93.441 17.1142ZM107.842 31.1876C106.321 31.0237 103.899 30.4909 103.092 30.1426L102.698 29.9725L102.644 28.0118C102.615 26.9333 102.581 25.4913 102.569 24.8075L102.547 23.564L102.782 23.4503C102.912 23.3878 103.175 23.3294 103.365 23.3205L103.711 23.3044L104.006 24.0339C105.157 26.88 106.507 28.4146 108.27 28.8813C108.942 29.0594 110.203 29.0609 110.701 28.8843C112.095 28.3897 112.86 27.3287 112.866 25.8793C112.874 24.1627 111.935 23.3379 108.388 21.9456C106.191 21.0829 105.424 20.6389 104.51 19.7C103.526 18.6871 103.054 17.5343 102.965 15.9286C102.858 13.9883 103.462 12.3526 104.801 10.9587C106.149 9.55601 107.898 8.79575 110.281 8.57723C112.38 8.38475 115.602 8.83205 117.29 9.55019L117.597 9.68123L117.652 11.4288C117.683 12.39 117.714 13.6785 117.721 14.2922L117.736 15.408L117.322 15.5622C116.669 15.8061 116.626 15.7755 116.262 14.8072C115.242 12.093 114.058 10.8087 112.213 10.4164C111.088 10.1773 110.148 10.4343 109.465 11.168C108.933 11.7403 108.725 12.2486 108.675 13.102C108.619 14.0268 108.784 14.5267 109.347 15.1449C110.04 15.9068 111.175 16.5646 113.436 17.5143C116.207 18.6776 117.528 19.6651 118.247 21.1085C118.714 22.0459 118.846 22.7946 118.799 24.2358C118.764 25.3171 118.729 25.5394 118.485 26.2655C117.687 28.6327 115.884 30.1912 113.101 30.9219C112.158 31.1693 112.023 31.1822 110.148 31.2028C109.068 31.2147 108.03 31.2079 107.842 31.1876ZM0.113531 30.6718C0.0425153 30.643 0.00676309 30.4291 0.00676309 30.033C0.00676309 29.3218 -0.0383446 29.3537 1.33068 29.0985C2.38069 28.9027 2.75635 28.7025 3.22002 28.0917C4.11903 26.9072 4.31335 24.6267 4.31536 15.2364C4.31725 6.41778 4.14818 4.56267 3.21841 3.19971C2.80589 2.59501 2.11072 2.26666 0.946318 2.12655L0.0494701 2.01862L0.0247351 1.31506L0 0.61149L0.280977 0.561177C0.435515 0.533506 5.86511 0.521813 12.3468 0.535193L24.1315 0.559522L24.1868 0.902842C24.2172 1.09167 24.267 3.02849 24.2976 5.2069L24.3532 9.16763L23.7456 9.35306C22.831 9.63222 22.8365 9.63567 22.425 8.54169C21.4144 5.85454 20.2555 4.30616 18.6698 3.52429C17.576 2.98504 17.0704 2.91984 13.9817 2.91984H11.2937L11.2473 3.37045C11.1605 4.21544 11.0233 9.65108 11.0243 12.2109L11.0252 14.7643L11.8153 14.7598C12.2498 14.7573 13.1067 14.7251 13.7194 14.6884C14.6405 14.6331 14.9142 14.584 15.2995 14.4047C16.2464 13.9643 16.8905 12.9948 17.2852 11.4165L17.489 10.6016L18.1861 10.5766L18.8833 10.5517V15.7084V20.8651L18.1858 20.8402L17.4884 20.8153L17.2904 20C16.9184 18.4679 16.2026 17.3712 15.3181 16.978C14.9096 16.7963 13.8988 16.6932 11.9434 16.6334L11.0252 16.6054V18.5426C11.0252 20.6538 11.1407 23.5097 11.2887 25.0597C11.4951 27.2204 12.0446 28.4144 13.0314 28.8465C13.2199 28.9291 13.8161 29.063 14.3563 29.1443C14.8965 29.2256 15.4059 29.327 15.4881 29.3696C15.6965 29.4779 15.7088 30.5969 15.5024 30.6765C15.3409 30.7388 0.267404 30.7342 0.113531 30.6718ZM42.2184 30.6556C42.1406 30.6057 42.1151 30.4078 42.133 29.9914L42.1586 29.3983L42.4576 29.3343C42.622 29.2992 42.9752 29.2293 43.2423 29.1792C44.0694 29.0239 44.5447 28.5728 44.8121 27.6893C45.03 26.9695 45.1261 24.6668 45.1311 20.0428C45.1372 14.3876 45.02 13.052 44.4509 12.295C44.1425 11.8847 43.9201 11.768 43.1718 11.6236C42.8025 11.5524 42.4138 11.476 42.3081 11.4539C42.1369 11.4181 42.1159 11.3621 42.1159 10.9414C42.1159 10.5324 42.1417 10.4585 42.3081 10.3898C42.5637 10.2841 51.0253 8.58455 51.2955 8.58455H51.5065L51.4651 9.85057C51.4424 10.5469 51.406 11.5607 51.3843 12.1036L51.3448 13.0907L51.6514 12.5351C52.6327 10.7569 53.7332 9.65302 55.1966 8.97908C55.9999 8.60914 56.5359 8.49874 57.5284 8.49874C58.7054 8.49874 59.8821 8.88468 59.8821 9.2707C59.8821 9.53032 57.8083 15.0363 57.694 15.0805C57.6382 15.102 57.2332 14.9464 56.7941 14.7346C55.8783 14.2931 55.0191 14.0771 54.1851 14.079C53.1466 14.0812 51.9864 14.4656 51.5283 14.9593C51.3324 15.1704 51.3315 15.1831 51.2828 18.3366C51.2346 21.4595 51.3381 25.2688 51.5129 26.8009C51.6618 28.1061 52.0069 28.7486 52.7197 29.0478C52.9575 29.1477 54.462 29.3547 54.9529 29.3553C54.9902 29.3553 55.0094 29.6547 54.9957 30.0205L54.9707 30.6857L48.6501 30.7062C45.1737 30.7174 42.2795 30.6947 42.2184 30.6556Z" fill="#6F7394"/>
</g>
<defs>
<clipPath id="clip0_4388_398525">
<rect width="119" height="32" fill="white"/>
</clipPath>
</defs>
</svg>
