<svg width="159" height="36" viewBox="0 0 159 36" fill="none" xmlns="http://www.w3.org/2000/svg">
<g clip-path="url(#clip0_4388_398490)">
<path fill-rule="evenodd" clip-rule="evenodd" d="M4.54141 3.54459C2.58457 4.83482 1.48142 6.54222 1.48142 8.33736C1.48142 10.1325 2.58457 11.8399 4.54141 13.1301C6.49429 14.4177 9.23366 15.2373 12.2958 15.2373C15.4947 15.2373 18.3395 14.343 20.3043 12.9568L21.1754 14.1194C18.9225 15.7091 15.7615 16.6748 12.2958 16.6748C8.97626 16.6748 5.93806 15.789 3.70882 14.3191C1.48355 12.8519 0 10.7499 0 8.33736C0 5.92479 1.48355 3.82282 3.70882 2.35561C5.93806 0.885786 8.97626 -0.00012207 12.2958 -0.00012207C17.2983 -0.00012207 21.7371 2.02368 23.635 5.09251L22.3648 5.83221C20.8209 3.33589 16.9711 1.43738 12.2958 1.43738C9.23366 1.43738 6.49429 2.25698 4.54141 3.54459Z" fill="#6F7394"/>
<path fill-rule="evenodd" clip-rule="evenodd" d="M4.54141 17.7302C6.49429 19.0178 9.23366 19.8374 12.2958 19.8374C14.8669 19.8374 17.2143 19.2592 19.0592 18.3083L19.7541 19.5778C17.6774 20.6483 15.0881 21.2749 12.2958 21.2749C8.97626 21.2749 5.93806 20.3889 3.70882 18.9191C1.48355 17.4519 0 15.35 0 12.9374H1.48142C1.48142 14.7326 2.58457 16.4399 4.54141 17.7302Z" fill="#6F7394"/>
<path fill-rule="evenodd" clip-rule="evenodd" d="M4.54141 22.3297C6.49429 23.6173 9.23366 24.437 12.2958 24.437C14.3713 24.437 16.303 24.0602 17.9424 23.4131L18.5005 24.7448C16.6747 25.4653 14.5526 25.8744 12.2958 25.8744C8.97626 25.8744 5.93806 24.9886 3.70882 23.5187C1.48355 22.0515 0 19.9495 0 17.537H1.48142C1.48142 19.3321 2.58457 21.0395 4.54141 22.3297Z" fill="#6F7394"/>
<path fill-rule="evenodd" clip-rule="evenodd" d="M1.48142 8.62488V22.1373C1.48142 23.9325 2.58457 25.6399 4.54141 26.9301C6.49429 28.2177 9.23366 29.0373 12.2958 29.0373C16.0054 29.0373 19.227 27.8361 21.1617 26.07L22.1767 27.1171C19.914 29.1826 16.3025 30.4748 12.2958 30.4748C8.97626 30.4748 5.93806 29.5889 3.70882 28.119C1.48355 26.6519 0 24.5499 0 22.1373V8.62488H1.48142Z" fill="#6F7394"/>
<path fill-rule="evenodd" clip-rule="evenodd" d="M14.3807 4.74402H39.442L37.4799 13.225H29.2407L27.7022 17.1061L36.3224 13.882L21.184 35.3618L22.4978 27.1337L15.999 29.6119L20.1078 13.225H12.2402L14.3807 4.74402ZM15.5432 6.18146L14.1283 11.7875H21.7765L18.073 27.312L24.443 24.5808L23.7024 29.6119L32.4149 16.8803L25.3472 19.518L28.534 11.7875H36.2941L37.5911 6.18146H15.5432Z" fill="#6F7394"/>
<path d="M56.5424 10.2209C56.4736 11.1445 56.1212 11.8716 55.4852 12.4021C54.8533 12.9327 54.0188 13.1979 52.9818 13.1979C51.8476 13.1979 50.9544 12.8285 50.3023 12.0897C49.6541 11.3469 49.3301 10.329 49.3301 9.036V8.5113C49.3301 7.68598 49.48 6.9589 49.7797 6.33009C50.0794 5.70127 50.5068 5.21983 51.0618 4.88577C51.6207 4.54778 52.2689 4.37878 53.0062 4.37878C54.0269 4.37878 54.8492 4.64406 55.473 5.17463C56.0969 5.7052 56.4573 6.44996 56.5546 7.4089H54.7318C54.6872 6.85476 54.5272 6.45388 54.2517 6.20629C53.9803 5.95476 53.5651 5.82899 53.0062 5.82899C52.3985 5.82899 51.9428 6.04122 51.639 6.46568C51.3392 6.8862 51.1853 7.54056 51.1772 8.42878V9.07723C51.1772 10.0047 51.321 10.6827 51.6086 11.1111C51.9002 11.5395 52.358 11.7537 52.9818 11.7537C53.5449 11.7537 53.9641 11.6299 54.2396 11.3823C54.519 11.1308 54.6791 10.7436 54.7196 10.2209H56.5424Z" fill="#6F7394"/>
<path d="M66.0031 8.98294C66.0031 9.82792 65.8492 10.5687 65.5413 11.2054C65.2335 11.8421 64.7919 12.3333 64.2168 12.6792C63.6456 13.0251 62.9894 13.1979 62.2481 13.1979C61.5149 13.1979 60.8607 13.027 60.2855 12.6851C59.7103 12.3432 59.2647 11.8558 58.9488 11.2231C58.6328 10.5864 58.4727 9.85543 58.4688 9.03009V8.60563C58.4688 7.76065 58.6247 7.01786 58.9366 6.37725C59.2525 5.73271 59.6961 5.23948 60.2672 4.89755C60.8424 4.5517 61.4987 4.37878 62.2359 4.37878C62.9731 4.37878 63.6273 4.5517 64.1985 4.89755C64.7737 5.23948 65.2172 5.73271 65.5291 6.37725C65.8451 7.01786 66.0031 7.75869 66.0031 8.59972V8.98294ZM64.156 8.5938C64.156 7.69384 63.9899 7.01 63.6577 6.54232C63.3256 6.07462 62.8517 5.84079 62.2359 5.84079C61.6243 5.84079 61.1523 6.07266 60.8202 6.53642C60.4881 6.99624 60.32 7.67223 60.3159 8.56436V8.98294C60.3159 9.85937 60.482 10.5393 60.8141 11.0227C61.1462 11.506 61.6243 11.7477 62.2481 11.7477C62.8597 11.7477 63.3296 11.5159 63.6577 11.0521C63.9859 10.5844 64.1519 9.90454 64.156 9.01243V8.5938Z" fill="#6F7394"/>
<path d="M70.2623 13.0804H68.4395V4.49695H70.2623V13.0804Z" fill="#6F7394"/>
<path d="M80.1483 13.0803H78.3255L74.7769 7.43275V13.0803H72.9541V4.49695H74.7769L78.3315 10.1563V4.49695H80.1483V13.0803Z" fill="#6F7394"/>
<path d="M89.2134 5.92947H86.5032V13.0803H84.6803V5.92947H82.0068V4.49695H89.2134V5.92947Z" fill="#6F7394"/>
<path d="M96.5759 9.36141H93.0752V11.6606H97.1827V13.0813H91.2529V4.49792H97.1713V5.93045H93.0752V7.97608H96.5759V9.36141Z" fill="#6F7394"/>
<path d="M101.072 11.6606H104.942V13.0813H99.249V4.49792H101.072V11.6606Z" fill="#6F7394"/>
<path d="M112.311 9.36044H108.811V11.6596H112.919V13.0803H106.988V4.49695H112.907V5.92947H108.811V7.9751H112.311V9.36044Z" fill="#6F7394"/>
<path d="M121.983 11.9963C121.655 12.3775 121.191 12.6743 120.591 12.8865C119.992 13.0948 119.328 13.1989 118.598 13.1989C117.833 13.1989 117.16 13.0378 116.582 12.7156C116.006 12.3893 115.561 11.9177 115.244 11.3007C114.932 10.6836 114.773 9.95858 114.765 9.12535V8.54176C114.765 7.68499 114.912 6.94416 115.208 6.31927C115.508 5.69045 115.937 5.21098 116.496 4.88085C117.06 4.54678 117.718 4.37976 118.471 4.37976C119.521 4.37976 120.34 4.62342 120.932 5.11076C121.523 5.59416 121.874 6.29962 121.983 7.22713H120.209C120.127 6.73587 119.947 6.37626 119.668 6.14831C119.392 5.92036 119.012 5.80639 118.526 5.80639C117.906 5.80639 117.434 6.03238 117.11 6.48434C116.786 6.9363 116.621 7.60835 116.618 8.50049V9.04872C116.618 9.94872 116.794 10.6287 117.146 11.0885C117.499 11.5483 118.015 11.7782 118.695 11.7782C119.38 11.7782 119.869 11.6367 120.16 11.3537V9.87406H118.501V8.57123H121.983V11.9963Z" fill="#6F7394"/>
<path d="M127.736 9.93921H126.284V13.0813H124.461V4.49792H127.748C128.794 4.49792 129.599 4.72391 130.166 5.17587C130.733 5.62784 131.017 6.26648 131.017 7.0918C131.017 7.67739 130.885 8.16669 130.622 8.55971C130.363 8.94878 129.968 9.25924 129.438 9.49118L131.351 12.9988V13.0813H129.395L127.736 9.93921ZM126.284 8.50665H127.754C128.212 8.50665 128.567 8.39464 128.818 8.17063C129.068 7.94268 129.195 7.63023 129.195 7.23329C129.195 6.82849 129.075 6.51014 128.836 6.27827C128.601 6.0464 128.238 5.93045 127.748 5.93045H126.284V8.50665Z" fill="#6F7394"/>
<path d="M138.396 11.3128H135.199L134.592 13.0813H132.653L135.947 4.49792H137.636L140.948 13.0813H139.009L138.396 11.3128ZM135.692 9.88024H137.903L136.792 6.66735L135.692 9.88024Z" fill="#6F7394"/>
<path d="M144.593 10.0561V13.0803H142.77V4.49695H146.221C146.885 4.49695 147.469 4.61485 147.971 4.85066C148.477 5.08646 148.866 5.42249 149.137 5.85873C149.409 6.29105 149.545 6.78428 149.545 7.33843C149.545 8.17947 149.247 8.84366 148.652 9.33104C148.06 9.81438 147.239 10.0561 146.191 10.0561H144.593ZM144.593 8.62355H146.221C146.703 8.62355 147.07 8.51354 147.32 8.29345C147.576 8.07336 147.704 7.75895 147.704 7.35021C147.704 6.92969 147.576 6.58974 147.32 6.33035C147.065 6.07096 146.713 5.93733 146.263 5.92947H144.593V8.62355Z" fill="#6F7394"/>
<path d="M159 13.0803H157.177V9.40175H153.622V13.0803H151.8V4.49695H153.622V7.9751H157.177V4.49695H159V13.0803Z" fill="#6F7394"/>
<path d="M54.8206 20.857H52.7558V26.3054H51.367V20.857H49.3301V19.7655H54.8206V20.857Z" fill="#6F7394"/>
<path d="M56.835 21.9754C57.1899 21.5622 57.6359 21.3555 58.1729 21.3555C59.2593 21.3555 59.8102 21.9679 59.8256 23.1926V26.3054H58.4877V23.2286C58.4877 22.9501 58.4259 22.745 58.3025 22.6132C58.179 22.4785 57.9739 22.4111 57.6869 22.4111C57.2948 22.4111 57.0109 22.5578 56.835 22.8512V26.3054H55.4971V19.4061H56.835V21.9754Z" fill="#6F7394"/>
<path d="M63.1412 26.3959C62.4067 26.3959 61.8079 26.1773 61.345 25.7401C60.8851 25.3029 60.6553 24.7205 60.6553 23.9929V23.867C60.6553 23.379 60.7524 22.9433 60.9469 22.56C61.1413 22.1737 61.416 21.8773 61.7709 21.6706C62.1289 21.461 62.5363 21.3562 62.9931 21.3562C63.6782 21.3562 64.2168 21.5658 64.6088 21.985C65.0038 22.4042 65.2013 22.9987 65.2013 23.7683V24.2983H62.0116C62.0548 24.6157 62.1845 24.8702 62.4006 25.0619C62.6196 25.2535 62.8959 25.3494 63.2292 25.3494C63.7446 25.3494 64.1474 25.1682 64.4374 24.8059L65.0948 25.52C64.8942 25.7955 64.6227 26.0111 64.2801 26.1668C63.9375 26.3196 63.5579 26.3959 63.1412 26.3959ZM62.9884 22.4072C62.7231 22.4072 62.507 22.4941 62.3403 22.6678C62.1768 22.8415 62.0719 23.09 62.0255 23.4134H63.8866V23.3101C63.8804 23.0227 63.8001 22.801 63.6459 22.6453C63.4916 22.4866 63.2724 22.4072 62.9884 22.4072Z" fill="#6F7394"/>
<path d="M68.6897 26.306V22.3983H67.9443V21.446H68.6897V21.0327C68.6897 20.4878 68.8502 20.0655 69.1712 19.7661C69.4952 19.4637 69.9474 19.3124 70.5276 19.3124C70.7128 19.3124 70.9396 19.3424 71.2081 19.4023L71.1942 20.4084C71.0831 20.3814 70.9473 20.3679 70.7868 20.3679C70.2838 20.3679 70.0323 20.5971 70.0323 21.0552V21.446H71.0275V22.3983H70.0323V26.306H68.6897Z" fill="#6F7394"/>
<path d="M74.7218 25.8121C74.3915 26.2014 73.9347 26.3961 73.3514 26.3961C72.8144 26.3961 72.4039 26.2463 72.12 25.9469C71.8391 25.6475 71.6956 25.2088 71.6895 24.6308V21.4462H73.0273V24.5859C73.0273 25.0919 73.265 25.345 73.7403 25.345C74.194 25.345 74.5057 25.1922 74.6754 24.8868V21.4462H76.018V26.3062H74.7588L74.7218 25.8121Z" fill="#6F7394"/>
<path d="M78.6319 20.2509V21.4456H79.4883V22.3979H78.6319V24.8234C78.6319 25.003 78.6673 25.1319 78.7383 25.2097C78.8093 25.2875 78.9451 25.3265 79.1457 25.3265C79.2939 25.3265 79.425 25.316 79.5392 25.2951V26.2787C79.2769 26.3565 79.0069 26.3955 78.729 26.3955C77.7909 26.3955 77.3125 25.9359 77.2939 25.0166V22.3979H76.5625V21.4456H77.2939V20.2509H78.6319Z" fill="#6F7394"/>
<path d="M83.2315 25.8121C82.9013 26.2014 82.4445 26.3961 81.8612 26.3961C81.3241 26.3961 80.9137 26.2463 80.6298 25.9469C80.3489 25.6475 80.2054 25.2088 80.1992 24.6308V21.4462H81.5371V24.5859C81.5371 25.0919 81.7748 25.345 82.2501 25.345C82.7037 25.345 83.0155 25.1922 83.1852 24.8868V21.4462H84.5277V26.3062H83.2685L83.2315 25.8121Z" fill="#6F7394"/>
<path d="M88.3546 22.6633C88.1724 22.6393 88.012 22.6273 87.873 22.6273C87.3669 22.6273 87.0351 22.7935 86.8777 23.1259V26.306H85.5398V21.446H86.8037L86.8407 22.0255C87.1092 21.5793 87.4811 21.3562 87.9564 21.3562C88.1046 21.3562 88.2434 21.3757 88.3731 21.4146L88.3546 22.6633Z" fill="#6F7394"/>
<path d="M91.2141 26.3961C90.4792 26.3961 89.8803 26.1774 89.4174 25.7403C88.9581 25.303 88.7275 24.7206 88.7275 23.993V23.8672C88.7275 23.3791 88.8256 22.9434 89.0199 22.5601C89.2143 22.1738 89.489 21.8774 89.8441 21.6707C90.2018 21.4612 90.609 21.3563 91.0657 21.3563C91.7512 21.3563 92.2891 21.5659 92.6813 21.9851C93.0762 22.4044 93.2741 22.9988 93.2741 23.7684V24.2984H90.0843C90.1276 24.6158 90.2575 24.8704 90.473 25.062C90.6921 25.2537 90.9686 25.3495 91.3016 25.3495C91.8174 25.3495 92.2202 25.1683 92.51 24.806L93.1672 25.5202C92.9667 25.7956 92.6955 26.0112 92.3527 26.167C92.01 26.3197 91.6311 26.3961 91.2141 26.3961ZM91.0613 22.4074C90.7954 22.4074 90.5799 22.4943 90.4129 22.6679C90.2495 22.8416 90.1444 23.0902 90.0985 23.4136H91.9597V23.3102C91.9535 23.0228 91.8731 22.8011 91.7185 22.6455C91.5639 22.4867 91.3449 22.4074 91.0613 22.4074Z" fill="#6F7394"/>
<path d="M96.1914 23.8311C96.1914 23.3491 96.2868 22.9193 96.4785 22.542C96.6693 22.1647 96.944 21.8727 97.3026 21.6661C97.663 21.4595 98.0817 21.3562 98.557 21.3562C99.2327 21.3562 99.7839 21.5569 100.21 21.9581C100.639 22.3593 100.877 22.9044 100.927 23.5931L100.937 23.9255C100.937 24.6711 100.722 25.27 100.293 25.7221C99.8643 26.1713 99.2884 26.3959 98.5658 26.3959C97.8441 26.3959 97.2664 26.1713 96.8345 25.7221C96.4061 25.273 96.1914 24.6621 96.1914 23.8895V23.8311ZM97.5288 23.9255C97.5288 24.3866 97.6189 24.7399 97.7973 24.9855C97.9766 25.2281 98.2328 25.3494 98.5658 25.3494C98.89 25.3494 99.1435 25.2295 99.3255 24.99C99.5074 24.7474 99.5984 24.3612 99.5984 23.8311C99.5984 23.379 99.5074 23.0287 99.3255 22.7801C99.1435 22.5315 98.8873 22.4072 98.557 22.4072C98.2301 22.4072 97.9766 22.5315 97.7973 22.7801C97.6189 23.0257 97.5288 23.4074 97.5288 23.9255Z" fill="#6F7394"/>
<path d="M102.125 26.306V22.3983H101.38V21.446H102.125V21.0327C102.125 20.4878 102.285 20.0655 102.607 19.7661C102.93 19.4637 103.382 19.3124 103.963 19.3124C104.148 19.3124 104.375 19.3424 104.644 19.4023L104.63 20.4084C104.518 20.3814 104.382 20.3679 104.222 20.3679C103.719 20.3679 103.467 20.5971 103.467 21.0552V21.446H104.463V22.3983H103.467V26.306H102.125Z" fill="#6F7394"/>
<path d="M108.774 21.4462L108.816 21.9897C109.17 21.5674 109.651 21.3563 110.256 21.3563C110.901 21.3563 111.343 21.6034 111.585 22.0975C111.936 21.6034 112.438 21.3563 113.089 21.3563C113.632 21.3563 114.037 21.5105 114.302 21.819C114.568 22.1244 114.7 22.5856 114.7 23.2024V26.3062H113.357V23.2069C113.357 22.9314 113.302 22.7308 113.191 22.605C113.079 22.4763 112.884 22.4119 112.603 22.4119C112.201 22.4119 111.924 22.5976 111.769 22.9689L111.775 26.3062H110.436V23.2114C110.436 22.93 110.379 22.7263 110.265 22.6006C110.151 22.4747 109.957 22.4119 109.682 22.4119C109.302 22.4119 109.027 22.5646 108.858 22.87V26.3062H107.52V21.4462H108.774Z" fill="#6F7394"/>
<path d="M115.523 23.8311C115.523 23.3491 115.619 22.9193 115.811 22.542C116.001 22.1647 116.276 21.8727 116.634 21.6661C116.995 21.4595 117.414 21.3562 117.889 21.3562C118.565 21.3562 119.116 21.5569 119.542 21.9581C119.97 22.3593 120.21 22.9044 120.259 23.5931L120.269 23.9255C120.269 24.6711 120.054 25.27 119.625 25.7221C119.195 26.1713 118.62 26.3959 117.898 26.3959C117.176 26.3959 116.598 26.1713 116.167 25.7221C115.737 25.273 115.523 24.6621 115.523 23.8895V23.8311ZM116.861 23.9255C116.861 24.3866 116.951 24.7399 117.129 24.9855C117.309 25.2281 117.565 25.3494 117.898 25.3494C118.222 25.3494 118.476 25.2295 118.657 24.99C118.839 24.7474 118.93 24.3612 118.93 23.8311C118.93 23.379 118.839 23.0287 118.657 22.7801C118.476 22.5315 118.219 22.4072 117.889 22.4072C117.561 22.4072 117.309 22.5315 117.129 22.7801C116.951 23.0257 116.861 23.4074 116.861 23.9255Z" fill="#6F7394"/>
<path d="M122.323 21.4462L122.366 22.0076C122.723 21.5734 123.203 21.3563 123.805 21.3563C124.336 21.3563 124.731 21.5075 124.99 21.81C125.25 22.1124 125.382 22.5646 125.388 23.1665V26.3062H124.05V23.1979C124.05 22.9224 123.988 22.7233 123.866 22.6006C123.742 22.4747 123.537 22.4119 123.25 22.4119C122.873 22.4119 122.591 22.5676 122.403 22.879V26.3062H121.064V21.4462H122.323Z" fill="#6F7394"/>
<path d="M128.713 26.3961C127.978 26.3961 127.38 26.1774 126.917 25.7403C126.457 25.303 126.228 24.7206 126.228 23.993V23.8672C126.228 23.3791 126.325 22.9434 126.519 22.5601C126.713 22.1738 126.988 21.8774 127.343 21.6707C127.701 21.4612 128.108 21.3563 128.565 21.3563C129.25 21.3563 129.789 21.5659 130.18 21.9851C130.575 22.4044 130.773 22.9988 130.773 23.7684V24.2984H127.583C127.627 24.6158 127.757 24.8704 127.972 25.062C128.191 25.2537 128.468 25.3495 128.801 25.3495C129.317 25.3495 129.719 25.1683 130.009 24.806L130.667 25.5202C130.466 25.7956 130.195 26.0112 129.852 26.167C129.509 26.3197 129.13 26.3961 128.713 26.3961ZM128.56 22.4074C128.295 22.4074 128.079 22.4943 127.912 22.6679C127.749 22.8416 127.644 23.0902 127.598 23.4136H129.459V23.3102C129.453 23.0228 129.372 22.8011 129.218 22.6455C129.063 22.4867 128.844 22.4074 128.56 22.4074Z" fill="#6F7394"/>
<path d="M133.344 24.4691L134.269 21.4462H135.705L133.691 27.0608L133.579 27.3168C133.28 27.9517 132.786 28.2691 132.098 28.2691C131.904 28.2691 131.706 28.2407 131.505 28.1837V27.2001L131.709 27.2045C131.962 27.2045 132.15 27.1671 132.274 27.0923C132.4 27.0174 132.499 26.8931 132.571 26.7195L132.728 26.3197L130.973 21.4462H132.412L133.344 24.4691Z" fill="#6F7394"/>
</g>
<defs>
<clipPath id="clip0_4388_398490">
<rect width="159" height="36" fill="white"/>
</clipPath>
</defs>
</svg>
