<svg width="80" height="81" viewBox="0 0 80 81" fill="none" xmlns="http://www.w3.org/2000/svg">
<rect y="0.307617" width="80" height="80" rx="16" fill="#4091DC" fill-opacity="0.1"/>
<path fill-rule="evenodd" clip-rule="evenodd" d="M29.9997 56.9752C26.3178 56.9752 23.333 53.9904 23.333 50.3085V34.1414C23.333 32.1654 24.4967 30.3748 26.3023 29.5723L39.1874 23.8456C39.7045 23.6158 40.2948 23.6158 40.812 23.8456L53.697 29.5723C55.5027 30.3748 56.6663 32.1654 56.6663 34.1414V50.3085C56.6663 53.9904 53.6816 56.9752 49.9997 56.9752H29.9997ZM39.9997 50.3075C40.9201 50.3075 41.6663 49.5613 41.6663 48.6409V41.9742C41.6663 41.0537 40.9201 40.3075 39.9997 40.3075C39.0792 40.3075 38.333 41.0537 38.333 41.9742V48.6409C38.333 49.5613 39.0792 50.3075 39.9997 50.3075ZM33.333 48.6409C33.333 49.5613 32.5868 50.3075 31.6663 50.3075C30.7459 50.3075 29.9997 49.5613 29.9997 48.6409V41.9742C29.9997 41.0537 30.7459 40.3075 31.6663 40.3075C32.5868 40.3075 33.333 41.0537 33.333 41.9742V48.6409ZM48.333 50.3075C49.2535 50.3075 49.9997 49.5613 49.9997 48.6409V41.9742C49.9997 41.0537 49.2535 40.3075 48.333 40.3075C47.4125 40.3075 46.6663 41.0537 46.6663 41.9742V48.6409C46.6663 49.5613 47.4125 50.3075 48.333 50.3075ZM27.6561 32.6197L39.1874 27.4947C39.7045 27.2649 40.2948 27.2649 40.812 27.4947L52.3432 32.6197C52.9451 32.8872 53.333 33.4841 53.333 34.1428V50.3098C53.333 52.1508 51.8406 53.6432 49.9997 53.6432H29.9997C28.1587 53.6432 26.6663 52.1508 26.6663 50.3098V34.1428C26.6663 33.4841 27.0542 32.8872 27.6561 32.6197Z" fill="#0084FF"/>
</svg>
