<svg width="131" height="36" viewBox="0 0 131 36" fill="none" xmlns="http://www.w3.org/2000/svg">
<g clip-path="url(#clip0_4388_398487)">
<path d="M62.5625 6.56074H62.2601C59.9484 6.56074 57.6269 6.56074 55.3152 6.55071C54.769 6.55071 54.3496 6.10999 54.3398 5.53905C54.3301 4.03656 54.3398 2.53407 54.3398 1.0416C54.3398 0.480673 54.7495 0.0399442 55.2958 -0.00012207H68.6685C69.0489 -0.00012207 69.3806 0.110061 69.5952 0.440607C69.6927 0.600872 69.7317 0.801204 69.7902 0.991517C69.8097 1.0416 69.7902 1.11172 69.7902 1.1618V34.1464C69.7902 34.7474 69.4976 35.1681 68.9903 35.2783C68.8928 35.2983 68.7855 35.2983 68.6782 35.2983H55.4421C54.7398 35.2983 54.3301 34.8776 54.3301 34.1664V29.8693C54.3301 29.1681 54.73 28.7475 55.4128 28.7475H62.5527C62.5625 21.3552 62.5625 13.973 62.5625 6.56074ZM32.647 6.56074V28.7475H32.9493C35.2025 28.7475 37.4459 28.7675 39.6991 28.7374C40.5184 28.7274 40.9183 29.2984 40.8989 29.9695C40.8793 31.3618 40.8989 32.7541 40.8891 34.1464C40.8891 34.7474 40.5867 35.1681 40.0893 35.2783C39.9917 35.2983 39.8844 35.3083 39.7772 35.3083H26.5409C25.8289 35.3083 25.4192 34.8976 25.4192 34.1664V1.1618C25.4192 0.420574 25.8289 -0.00012207 26.5409 -0.00012207H39.7772C40.4697 -0.00012207 40.8891 0.420574 40.8989 1.13175C40.9086 2.57413 40.8989 4.01652 40.8989 5.45891C40.8989 6.14004 40.3623 6.57075 39.8551 6.56074C37.5532 6.5407 35.261 6.56074 32.9591 6.56074H32.647Z" fill="#838EAF"/>
<path d="M52.3595 18.4005V22.6475C52.3595 23.1184 52.223 23.2485 51.7646 23.2485H49.0334C48.6627 23.2485 48.4969 23.0783 48.4969 22.6976V12.3205C48.4969 11.9198 48.653 11.7595 49.0432 11.7595H51.4329C51.7646 11.7595 52.0182 11.8797 52.223 12.1702C53.2959 13.6927 54.3689 15.2052 55.4418 16.7178C55.4906 16.7879 55.5393 16.8479 55.6271 16.9682C55.6369 16.8279 55.6369 16.7378 55.6369 16.6576V12.4106C55.6369 11.9098 55.7734 11.7696 56.2611 11.7696H58.8947C59.3629 11.7696 59.5189 11.9299 59.5189 12.4206V22.6175C59.5189 23.1083 59.3727 23.2586 58.8947 23.2586C58.1339 23.2586 57.3633 23.2485 56.6025 23.2586C56.2514 23.2685 55.9978 23.1283 55.7929 22.8479C54.6907 21.4055 53.5885 19.9631 52.4863 18.5307C52.4571 18.4907 52.4278 18.4707 52.3595 18.4005ZM38.7819 15.1451H36.0313C35.5826 15.1451 35.4363 14.9949 35.4363 14.5241V12.3205C35.4363 11.9198 35.6021 11.7495 35.9826 11.7495H45.9511C46.3218 11.7495 46.4779 11.9198 46.4877 12.3005V14.5742C46.4877 14.9749 46.3218 15.1351 45.9316 15.1351H43.1615V19.8529H45.7073C45.8244 19.8529 45.9316 19.8629 46.0487 19.873C46.3413 19.903 46.4779 20.0333 46.4877 20.3237C46.4973 21.1351 46.4973 21.9363 46.4877 22.7478C46.4877 23.0783 46.3023 23.2286 45.9414 23.2286H36.002C35.6217 23.2286 35.4558 23.0582 35.4558 22.6676V20.4138C35.4558 20.0031 35.6217 19.8429 36.0216 19.8429H38.8015C38.7819 18.2804 38.7819 16.7277 38.7819 15.1451ZM1.64843 6.89148V13.3922C1.73621 13.3422 1.80449 13.3021 1.86301 13.262C4.1162 11.6493 8.78837 12.2303 9.67601 16.6777C9.97832 18.1702 9.87103 19.6426 9.13951 20.9948C8.34943 22.4572 7.08141 23.2786 5.51101 23.5992C3.61874 23.9797 1.85326 23.569 0.175572 22.6576C0.00975405 22.5674 0.00975406 22.4473 0.00975406 22.297V16.0666C0.00975406 13.3021 0.00975406 10.5275 0 7.76293C0 7.54256 0.04877 7.44239 0.263358 7.37228C0.731551 7.24206 1.17048 7.06177 1.64843 6.89148ZM1.64843 18.3404C1.64843 19.3721 1.65818 20.4039 1.64843 21.4356C1.64843 21.6259 1.6972 21.716 1.87277 21.7761C2.91645 22.1468 3.97963 22.317 5.08184 22.1468C6.61322 21.8963 7.65689 20.9647 8.0178 19.4723C8.17386 18.8212 8.20313 18.1501 8.13484 17.489C8.00804 16.3171 7.56912 15.3054 6.59371 14.6142C5.75487 14.0233 4.81848 13.9231 3.84308 14.0734C3.10178 14.1836 2.40924 14.414 1.81425 14.9147C1.6972 15.015 1.64843 15.1151 1.64843 15.2754V18.3404ZM101.305 12.5609H102.895V13.7128C103.051 13.5725 103.178 13.4524 103.305 13.3422C104.875 11.9698 107.08 11.7696 108.748 12.8614C109.469 13.3322 110.035 13.9632 110.377 14.7645C111.166 16.5975 111.196 18.4606 110.377 20.2837C109.411 22.4072 107.304 23.519 105.051 23.1784C104.3 23.0683 103.597 22.8579 102.914 22.4072V26.8044C102.914 27.0248 102.865 27.095 102.641 27.0849C102.202 27.0648 101.764 27.0849 101.315 27.0849C101.305 22.2368 101.305 17.4089 101.305 12.5609ZM102.895 18.1001C102.895 18.9515 102.905 19.8029 102.886 20.6442C102.886 20.8346 102.944 20.9447 103.1 21.0449C103.978 21.6158 104.953 21.8563 105.977 21.7961C107.343 21.716 108.347 21.0249 108.884 19.7227C109.401 18.4707 109.43 17.1585 109.031 15.8664C108.757 14.9848 108.182 14.3438 107.333 13.9932C105.86 13.3822 104.173 13.8329 103.051 15.1251C102.963 15.2253 102.905 15.3856 102.905 15.5157C102.895 16.3872 102.895 17.2486 102.895 18.1001ZM21.6247 18.1501H12.9339C12.9435 19.0015 13.0802 19.8029 13.5093 20.534C14.1238 21.5558 15.0504 22.0666 16.1721 22.1968C17.6938 22.3771 19.1373 22.0465 20.503 21.3354C20.5615 21.3053 20.62 21.2753 20.6882 21.2452V22.888C19.7031 23.3387 18.6692 23.6091 17.5865 23.6993C16.6013 23.7794 15.6259 23.7394 14.6797 23.3988C12.7972 22.7377 11.6951 21.3655 11.344 19.3721C11.1586 18.3404 11.1781 17.3087 11.4512 16.297C12.0072 14.2436 13.3532 13.0417 15.3626 12.5909C16.4843 12.3405 17.5963 12.3605 18.6594 12.8614C20.1518 13.5725 21.0004 14.8246 21.3711 16.4273C21.5076 16.9782 21.5466 17.5491 21.6247 18.1501ZM19.8591 16.878C19.8689 16.8479 19.8787 16.838 19.8787 16.8179V16.7478C19.7616 15.7361 19.3325 14.9048 18.4644 14.3638C17.2646 13.6226 15.4991 13.7529 14.2994 14.6543C13.5678 15.2052 13.1581 15.9565 13.0021 16.878H19.8591ZM125.466 12.1502C127.085 12.1903 128.49 12.6711 129.582 13.873C130.314 14.6744 130.713 15.646 130.86 16.7378C131.035 18.08 130.899 19.3821 130.235 20.5842C129.475 21.9764 128.275 22.7678 126.773 23.0983C125.525 23.3688 124.295 23.2685 123.125 22.7478C121.311 21.9264 120.345 20.4639 120.121 18.4707C119.984 17.2687 120.121 16.0867 120.667 14.9949C121.467 13.4023 122.793 12.5509 124.48 12.2403C124.608 12.2203 124.734 12.2002 124.871 12.1903C125.086 12.1802 125.3 12.1702 125.466 12.1502ZM125.193 13.5825C124.559 13.5825 123.71 13.873 122.979 14.504C121.418 15.8563 121.359 18.6409 122.345 20.1234C123.241 21.4856 124.549 21.9665 126.09 21.7661C127.436 21.5858 128.422 20.8545 128.977 19.5624C129.299 18.8012 129.367 17.9899 129.299 17.1685C129.113 15.045 127.582 13.5825 125.193 13.5825ZM94.7213 20.6943C95.8625 17.9398 96.9741 15.2453 98.0867 12.5609H99.6956C99.5784 12.8614 99.4613 13.1519 99.345 13.4323C97.5203 17.7996 95.6872 22.1567 93.8827 26.534C93.6973 26.9848 93.4925 27.1651 93.0238 27.1049C92.7019 27.0648 92.3799 27.095 92.0193 27.095C92.1949 26.6642 92.3605 26.2736 92.5266 25.8829C92.9463 24.8812 93.3753 23.8896 93.7849 22.8779C93.8237 22.7778 93.8237 22.6275 93.7849 22.5273L89.7174 12.7612C89.6881 12.7011 89.6686 12.641 89.6393 12.5509C90.2148 12.5509 90.761 12.5408 91.3073 12.5609C91.3659 12.5609 91.4341 12.6711 91.4634 12.7412C92.2729 14.7044 93.0727 16.6676 93.8726 18.6309C94.1456 19.292 94.4187 19.9531 94.7213 20.6943ZM81.5045 14.1836C80.8022 14.0233 80.1292 13.8329 79.4464 13.7328C78.1003 13.5225 76.8323 13.7628 75.8375 14.7846C74.6475 15.9965 74.4133 17.4991 74.9108 19.0816C75.3887 20.6142 76.4909 21.4656 78.0223 21.706C79.1342 21.8763 80.1975 21.6358 81.2509 21.2652C81.3094 21.2452 81.368 21.2252 81.4362 21.1951H81.5045V22.6876C81.5045 22.7277 81.4557 22.7877 81.407 22.8078C79.2611 23.4489 77.1542 23.539 75.1936 22.2269C73.7988 21.2954 73.1453 19.903 73.0283 18.2302C72.9405 17.0183 73.1161 15.8463 73.7306 14.7846C74.5304 13.4123 75.7496 12.641 77.242 12.3205C78.627 12.02 80.0024 12.1602 81.3484 12.6109C81.4167 12.631 81.4947 12.7412 81.4947 12.8113C81.5143 13.272 81.5045 13.7428 81.5045 14.1836ZM113.781 13.9431H111.986C112.045 13.8029 112.064 13.6827 112.132 13.5926C113.127 12.4106 114.122 11.2387 115.127 10.0767C115.185 10.0066 115.283 9.97658 115.36 9.92646C115.381 10.0166 115.429 10.1068 115.429 10.1969C115.439 10.8781 115.429 11.5592 115.429 12.2504V12.5408H118.794V13.9431H115.429V19.903C115.429 20.1735 115.449 20.4539 115.488 20.7244C115.585 21.2753 115.848 21.4856 116.405 21.4756C117.145 21.4556 117.848 21.2954 118.54 21.0349C118.628 21.0048 118.726 20.9647 118.843 20.9247C118.843 21.3955 118.843 21.8362 118.833 22.287C118.833 22.3371 118.775 22.4072 118.726 22.4272C117.692 22.908 116.619 23.1584 115.488 22.9781C114.717 22.8579 114.2 22.3771 113.995 21.6158C113.869 21.1351 113.8 20.6142 113.8 20.1133C113.781 18.1601 113.79 16.2169 113.79 14.2637C113.781 14.1635 113.781 14.0734 113.781 13.9431ZM83.6406 12.5609H85.2403V14.9548C85.2598 14.9648 85.2793 14.9848 85.2988 14.9949C85.9914 13.1618 87.3569 12.3505 89.1907 12.2203V14.0133C88.8395 14.0633 88.4689 14.0834 88.1177 14.1635C86.5083 14.5342 85.6695 15.636 85.3671 17.2286C85.2793 17.6993 85.25 18.1902 85.2403 18.671C85.2208 19.9531 85.2305 21.2352 85.2305 22.5174V22.8278H83.6309C83.6406 19.4222 83.6406 15.9965 83.6406 12.5609Z" fill="#838EAF"/>
</g>
<defs>
<clipPath id="clip0_4388_398487">
<rect width="131" height="36" fill="white"/>
</clipPath>
</defs>
</svg>
