<svg width="120" height="120" viewBox="0 0 120 120" fill="none" xmlns="http://www.w3.org/2000/svg">
<path fill-rule="evenodd" clip-rule="evenodd" d="M24.1203 24.4314C3.90187 44.6498 3.90187 77.4196 24.1203 97.639C44.3387 117.856 77.1085 117.856 97.3279 97.639C117.546 77.4206 117.546 44.6488 97.3279 24.4314C77.1085 4.21194 44.3387 4.21194 24.1203 24.4314ZM24.9994 18.6851L25.1078 18.6871C28.0612 18.7463 30.5992 16.9028 31.4542 14.0758L31.4883 13.9714C32.0182 12.2152 33.1201 10.8996 34.7549 10.0676C36.3886 9.2337 38.1007 9.11628 39.8338 9.71841L39.9372 9.75452C42.727 10.7229 45.7116 9.75453 47.3985 7.32997L47.4607 7.24067C48.5094 5.73535 49.9636 4.8231 51.776 4.53609C53.5864 4.24908 55.2523 4.66656 56.7144 5.77547L56.8007 5.8407C59.155 7.624 62.2921 7.624 64.6465 5.8407L64.7327 5.77547C66.1949 4.66656 67.8608 4.24908 69.6722 4.53609C71.4846 4.8231 72.9377 5.73535 73.9864 7.24067L74.0487 7.32997C75.7366 9.75453 78.7192 10.7229 81.511 9.75452L81.6124 9.71841C83.3455 9.11628 85.0586 9.2337 86.6933 10.0676C88.3281 10.8996 89.427 12.2152 89.9609 13.9714L89.992 14.0758C90.848 16.9028 93.385 18.7463 96.3384 18.6881L96.4478 18.6851C98.2833 18.649 99.8749 19.2892 101.172 20.5858C102.468 21.8844 103.108 23.475 103.073 25.3095L103.069 25.4189C103.011 28.3713 104.854 30.9103 107.681 31.7653L107.787 31.7974C109.541 32.3303 110.859 33.4312 111.692 35.065C112.525 36.6997 112.642 38.4118 112.041 40.1449L112.005 40.2483C111.035 43.0381 112.005 46.0217 114.428 47.7096L114.518 47.7718C116.023 48.8205 116.935 50.2747 117.223 52.0861C117.509 53.8975 117.092 55.5623 115.982 57.0235L115.918 57.1118C114.134 59.4661 114.134 62.6042 115.918 64.9575L115.982 65.0439C117.092 66.506 117.509 68.1709 117.223 69.9823C116.935 71.7947 116.023 73.2488 114.518 74.2965L114.428 74.3577C112.005 76.0467 111.035 79.0323 112.005 81.8201L112.039 81.9235C112.642 83.6566 112.525 85.3687 111.692 87.0034C110.859 88.6372 109.541 89.7391 107.787 90.272L107.681 90.3031C104.854 91.1591 103.011 93.6981 103.069 96.6495L103.073 96.7599C103.108 98.5924 102.468 100.185 101.172 101.484C99.8749 102.78 98.2833 103.419 96.4478 103.383L96.3404 103.38C93.385 103.323 90.848 105.167 89.992 107.993L89.9609 108.099C89.427 109.853 88.3281 111.17 86.6933 112.002C85.0586 112.835 83.3455 112.952 81.6124 112.351L81.511 112.315C78.7192 111.345 75.7366 112.316 74.0487 114.739L73.9864 114.83C72.9377 116.334 71.4846 117.245 69.6722 117.533C67.8608 117.819 66.1949 117.402 64.7327 116.295L64.6465 116.228C62.2921 114.444 59.155 114.444 56.8007 116.228L56.7144 116.295C55.2523 117.402 53.5864 117.819 51.776 117.533C49.9646 117.246 48.5094 116.334 47.4607 114.83L47.3985 114.739C45.7116 112.316 42.727 111.345 39.9372 112.315L39.8348 112.351C38.1007 112.952 36.3886 112.835 34.7549 112.002C33.1201 111.17 32.0182 109.853 31.4883 108.099L31.4552 107.992C30.5992 105.167 28.0612 103.322 25.1088 103.38L24.9994 103.383C23.1659 103.419 21.5723 102.78 20.2757 101.484C18.9791 100.185 18.3379 98.5924 18.374 96.7599L18.376 96.6495C18.4352 93.6981 16.5917 91.1591 13.7657 90.3031L13.6603 90.272C11.9041 89.7391 10.5885 88.6372 9.75655 87.0034C8.9236 85.3697 8.80519 83.6566 9.40832 81.9235L9.44344 81.8201C10.4119 79.0323 9.44344 76.0467 7.01887 74.3577L6.92956 74.2965C5.42323 73.2488 4.51202 71.7947 4.22601 69.9823C3.93799 68.1709 4.35546 66.506 5.46338 65.0439L5.52962 64.9575C7.31392 62.6042 7.31392 59.4661 5.52962 57.1118L5.46338 57.0235C4.35546 55.5623 3.93799 53.8975 4.22601 52.0861C4.51202 50.2747 5.42323 48.8205 6.92956 47.7718L7.01887 47.7096C9.44344 46.0217 10.4119 43.0381 9.44344 40.2483L9.40832 40.1449C8.80619 38.4118 8.9236 36.6997 9.75655 35.065C10.5885 33.4312 11.9041 32.3303 13.6603 31.7974L13.7657 31.7663C16.5917 30.9103 18.4352 28.3713 18.377 25.4189L18.374 25.3095C18.3389 23.475 18.9791 21.8834 20.2757 20.5858C21.5723 19.2892 23.1659 18.648 24.9994 18.6851Z" fill="#9E9E9E"/>
<path fill-rule="evenodd" clip-rule="evenodd" d="M24.1203 24.4314C3.90187 44.6498 3.90187 77.4196 24.1203 97.639C44.3387 117.856 77.1085 117.856 97.3279 97.639C117.546 77.4206 117.546 44.6488 97.3279 24.4314C77.1085 4.21194 44.3387 4.21194 24.1203 24.4314ZM26.2187 95.5406C19.7539 89.0757 15.4848 81.2511 13.4044 72.9879H108.042C105.964 81.2511 101.693 89.0757 95.2295 95.5406C76.1692 114.601 45.28 114.601 26.2187 95.5406ZM14.0286 46.8355C16.2806 39.4043 20.3429 32.4045 26.2187 26.5278C45.28 7.46746 76.1692 7.46746 95.2295 26.5278C101.105 32.4035 105.167 39.4033 107.421 46.8355H14.0286Z" fill="#9E9E9E"/>
<path d="M13.4044 72.9879C15.4848 81.2511 19.7539 89.0757 26.2187 95.5406C45.28 114.601 76.1692 114.601 95.2295 95.5406C101.693 89.0757 105.964 81.2511 108.042 72.9879H13.4044Z" fill="#9E9E9E"/>
<path fill-rule="evenodd" clip-rule="evenodd" d="M23.0861 23.3967C2.86769 43.6151 2.86769 76.3849 23.0861 96.6043C43.3045 116.822 76.0743 116.822 96.2937 96.6043C116.512 76.3859 116.512 43.6141 96.2937 23.3967C76.0743 3.17728 43.3045 3.17728 23.0861 23.3967ZM25.1845 94.5059C18.7197 88.0411 14.4506 80.2164 12.3703 71.9532H107.008C104.93 80.2164 100.659 88.0411 94.1953 94.5059C75.135 113.566 44.2459 113.566 25.1845 94.5059ZM12.9945 45.8008C15.2464 38.3696 19.3088 31.3699 25.1845 25.4931C44.2459 6.43279 75.135 6.43279 94.1953 25.4931C100.071 31.3689 104.132 38.3686 106.386 45.8008H12.9945Z" fill="#010101"/>
<path d="M25.1845 25.4931C19.3088 31.3699 15.2464 38.3696 12.9945 45.8008H106.386C104.132 38.3686 100.071 31.3689 94.1953 25.4931C75.135 6.43279 44.2459 6.43279 25.1845 25.4931Z" fill="#010101"/>
<path d="M12.3703 71.9532C14.4506 80.2164 18.7197 88.0411 25.1845 94.5059C44.2459 113.566 75.135 113.566 94.1953 94.5059C100.659 88.0411 104.93 80.2164 107.008 71.9532H12.3703Z" fill="#010101"/>
<path fill-rule="evenodd" clip-rule="evenodd" d="M23.0861 23.3967C2.86769 43.6151 2.86769 76.3849 23.0861 96.6043C43.3045 116.822 76.0743 116.822 96.2937 96.6043C116.512 76.3859 116.512 43.6141 96.2937 23.3967C76.0743 3.17728 43.3045 3.17728 23.0861 23.3967ZM23.9652 17.6504L24.0736 17.6524C27.027 17.7116 29.565 15.8681 30.42 13.0411L30.4541 12.9368C30.984 11.1806 32.0859 9.86491 33.7207 9.03297C35.3544 8.19903 37.0665 8.08161 38.7996 8.68374L38.903 8.71986C41.6928 9.68828 44.6774 8.71986 46.3643 6.2953L46.4266 6.206C47.4753 4.70068 48.9294 3.78844 50.7418 3.50142C52.5522 3.21441 54.2181 3.63189 55.6803 4.74081L55.7665 4.80603C58.1209 6.58933 61.258 6.58933 63.6123 4.80603L63.6986 4.74081C65.1607 3.63189 66.8266 3.21441 68.638 3.50142C70.4504 3.78844 71.9035 4.70068 72.9522 6.206L73.0145 6.2953C74.7024 8.71986 77.685 9.68828 80.4769 8.71986L80.5782 8.68374C82.3113 8.08161 84.0244 8.19903 85.6591 9.03297C87.2939 9.86491 88.3928 11.1806 88.9267 12.9368L88.9578 13.0411C89.8138 15.8681 92.3508 17.7116 95.3042 17.6534L95.4136 17.6504C97.2491 17.6143 98.8407 18.2546 100.138 19.5511C101.434 20.8497 102.074 22.4403 102.039 24.2748L102.035 24.3842C101.977 27.3366 103.82 29.8756 106.647 30.7306L106.753 30.7627C108.507 31.2956 109.825 32.3965 110.657 34.0303C111.49 35.6651 111.608 37.3771 111.007 39.1102L110.971 39.2136C110.001 42.0034 110.971 44.987 113.394 46.675L113.483 46.7372C114.989 47.7859 115.901 49.24 116.189 51.0514C116.475 52.8628 116.058 54.5277 114.948 55.9888L114.883 56.0772C113.1 58.4315 113.1 61.5696 114.883 63.9229L114.948 64.0092C116.058 65.4714 116.475 67.1362 116.189 68.9476C115.901 70.76 114.989 72.2142 113.483 73.2619L113.394 73.3231C110.971 75.012 110.001 77.9976 110.971 80.7854L111.005 80.8888C111.608 82.6219 111.49 84.334 110.657 85.9688C109.825 87.6025 108.507 88.7044 106.753 89.2373L106.647 89.2684C103.82 90.1244 101.977 92.6634 102.035 95.6148L102.039 95.7252C102.074 97.5577 101.434 99.1503 100.138 100.449C98.8407 101.745 97.2491 102.385 95.4136 102.349L95.3062 102.346C92.3508 102.288 89.8138 104.132 88.9578 106.958L88.9267 107.064C88.3928 108.818 87.2939 110.135 85.6591 110.967C84.0244 111.8 82.3113 111.917 80.5782 111.316L80.4769 111.28C77.685 110.311 74.7024 111.281 73.0145 113.705L72.9522 113.795C71.9035 115.299 70.4504 116.211 68.638 116.499C66.8266 116.785 65.1607 116.367 63.6986 115.26L63.6123 115.193C61.258 113.41 58.1209 113.41 55.7665 115.193L55.6803 115.26C54.2181 116.367 52.5522 116.785 50.7418 116.499C48.9304 116.212 47.4753 115.299 46.4266 113.795L46.3643 113.705C44.6774 111.281 41.6928 110.311 38.903 111.28L38.8006 111.316C37.0665 111.917 35.3544 111.8 33.7207 110.967C32.0859 110.135 30.984 108.818 30.4541 107.064L30.421 106.957C29.565 104.132 27.027 102.287 24.0746 102.346L23.9652 102.349C22.1317 102.385 20.5381 101.745 19.2415 100.449C17.945 99.1503 17.3037 97.5577 17.3398 95.7252L17.3418 95.6148C17.401 92.6634 15.5575 90.1244 12.7315 89.2684L12.6262 89.2373C10.87 88.7044 9.55431 87.6025 8.72237 85.9688C7.88942 84.335 7.77101 82.6219 8.37414 80.8888L8.40926 80.7854C9.37768 77.9976 8.40926 75.012 5.98469 73.3231L5.89538 73.2619C4.38906 72.2142 3.47784 70.76 3.19183 68.9476C2.90381 67.1362 3.32128 65.4714 4.4292 64.0092L4.49544 63.9229C6.27974 61.5696 6.27974 58.4315 4.49544 56.0772L4.4292 55.9888C3.32128 54.5277 2.90381 52.8628 3.19183 51.0514C3.47784 49.24 4.38906 47.7859 5.89538 46.7372L5.98469 46.675C8.40926 44.987 9.37768 42.0034 8.40926 39.2136L8.37414 39.1102C7.77201 37.3771 7.88942 35.6651 8.72237 34.0303C9.55431 32.3965 10.87 31.2956 12.6262 30.7627L12.7315 30.7316C15.5575 29.8756 17.401 27.3366 17.3428 24.3842L17.3398 24.2748C17.3047 22.4403 17.945 20.8487 19.2415 19.5511C20.5381 18.2546 22.1317 17.6133 23.9652 17.6504Z" fill="#8BC53F"/>
<circle cx="59.3278" cy="59.6383" r="50.0172" stroke="#A3E152" stroke-width="0.724138" stroke-linecap="round"/>
<circle cx="48.1034" cy="48.1034" r="48.1034" transform="matrix(-1 0 0 1 107.586 11.6899)" fill="url(#paint0_linear_1744_43757)"/>
<path fill-rule="evenodd" clip-rule="evenodd" d="M11.6016 64.4486H107.364C106.514 73.2994 103.266 81.4496 98.2764 88.2417H20.6891C15.6999 81.4496 12.4516 73.2994 11.6016 64.4486Z" fill="url(#paint1_linear_1744_43757)"/>
<path d="M35.2039 55.2931C34.9548 54.3473 34.3163 53.6675 33.0551 53.6675C31.202 53.6675 30.439 55.2191 30.439 56.7857C30.439 58.3522 31.2177 59.904 33.0551 59.904C34.3942 59.904 35.1261 58.9581 35.2506 57.7611H36.73C36.6054 59.7266 35.1417 61.0714 33.0551 61.0714C30.4702 61.0714 28.9286 59.1206 28.9286 56.7857C28.9286 54.4507 30.4702 52.5 33.0551 52.5C35.0015 52.5148 36.5275 53.5345 36.7143 55.2931H35.2039ZM37.6331 57.9088C37.6331 56.0911 38.7854 54.7907 40.7786 54.7907C42.7716 54.7907 43.9239 56.0911 43.9239 57.9088C43.9239 59.7266 42.7716 61.0419 40.7786 61.0419C38.7854 61.0419 37.6331 59.7266 37.6331 57.9088ZM42.5537 57.9088C42.5537 56.8891 42.0086 55.8252 40.7786 55.8252C39.5484 55.8252 39.0034 56.8891 39.0034 57.9088C39.0034 58.9285 39.5484 60.0074 40.7786 60.0074C42.0086 60.0074 42.5537 58.9433 42.5537 57.9088ZM45.1074 52.6921H46.4777V53.9335H45.1074V52.6921ZM45.1074 54.9532H46.4777V60.8793H45.1074V54.9532ZM47.9882 54.9532H49.2961V55.8252L49.3273 55.8546C49.7322 55.2045 50.464 54.7907 51.2738 54.8053C52.6284 54.8053 53.4848 55.5 53.4848 56.8153V60.8793H52.1145V57.1552C52.0835 56.2242 51.7097 55.8252 50.9 55.8252C49.9812 55.8252 49.3895 56.5049 49.3895 57.3768V60.8793H48.0192V54.9532H47.9882ZM62.6409 60.8793H61.6754L61.4419 59.9188C60.6322 60.7906 59.9003 61.0714 58.8415 61.0714C56.2566 61.0714 54.715 59.1206 54.715 56.7857C54.715 54.4507 56.2566 52.5 58.8415 52.5C60.7256 52.5 62.3139 53.4458 62.5319 55.2931H61.0526C60.9124 54.2142 59.9159 53.6675 58.8259 53.6675C56.9729 53.6675 56.2098 55.2191 56.2098 56.7857C56.2098 58.3522 56.9885 59.904 58.8259 59.904C60.3675 59.9335 61.2239 59.0468 61.2395 57.6577H58.9505V56.564H62.6254L62.6409 60.8793ZM65.1635 58.2488C65.1635 59.1798 65.693 60.0074 66.8453 60.0074C67.6393 60.0074 68.122 59.6823 68.3712 59.0172H69.6792C69.3834 60.3178 68.2155 61.0419 66.8453 61.0419C64.8832 61.0419 63.7932 59.7413 63.7932 57.9236C63.7932 56.239 64.961 54.7907 66.8141 54.7907C68.7761 54.7907 69.9906 56.4753 69.7571 58.2488H65.1635ZM68.3712 57.3916C68.3245 56.564 67.7328 55.8252 66.7985 55.8252C65.8486 55.8252 65.1946 56.5049 65.1479 57.3916H68.3712ZM75.0202 56.9335C74.9113 56.2094 74.3506 55.8252 73.5877 55.8252C72.8714 55.8252 71.8748 56.1798 71.8748 57.9827C71.8748 58.9729 72.3264 60.0074 73.5254 60.0074C74.3196 60.0074 74.8801 59.505 75.0047 58.6478H76.375C76.1258 60.1847 75.1293 61.0271 73.5098 61.0271C71.5478 61.0271 70.4734 59.7119 70.4734 57.968C70.4734 56.1798 71.5011 54.7759 73.5565 54.7759C75.0047 54.7759 76.2349 55.4704 76.375 56.9187H75.0202V56.9335ZM77.5584 52.6921H78.9287V57.3473L81.4201 54.9532H83.1174L80.7194 57.1256L83.3354 60.8793H81.6537L79.7384 57.9975L78.9131 58.7512V60.8793H77.5428V52.6921H77.5584ZM83.7092 57.9088C83.7092 56.0911 84.8615 54.7907 86.8545 54.7907C88.8632 54.7907 90 56.0911 90 57.9088C90 59.7266 88.8477 61.0419 86.8545 61.0419C84.8615 61.0419 83.7092 59.7266 83.7092 57.9088ZM88.6454 57.9088C88.6454 56.8891 88.1003 55.8252 86.8702 55.8252C85.64 55.8252 85.095 56.8891 85.095 57.9088C85.095 58.9285 85.64 60.0074 86.8702 60.0074C88.1003 60.0074 88.6454 58.9433 88.6454 57.9088Z" fill="white"/>
<path d="M34.415 73.0931H30V70.8109H41.1186V73.0931H36.7036V82.9135H34.415V73.0931Z" fill="black"/>
<path d="M47.6121 70.6553C51.6863 70.6553 53.4393 72.5052 53.4393 76.8622C53.4393 81.2018 51.6863 83.0691 47.6121 83.0691C43.5218 83.0691 41.785 81.2018 41.785 76.8622C41.785 72.5052 43.5218 70.6553 47.6121 70.6553ZM44.9015 73.8538C44.3334 74.4935 44.0574 75.4963 44.0574 76.8622C44.0574 78.228 44.3334 79.2308 44.9015 79.8532C45.4696 80.4757 46.3623 80.7869 47.6121 80.7869C48.862 80.7869 49.7547 80.4757 50.3228 79.8532C50.8909 79.2308 51.1668 78.228 51.1668 76.8622C51.1668 75.4963 50.8909 74.4935 50.3228 73.8538C49.7547 73.2314 48.862 72.9202 47.6121 72.9202C46.3623 72.9202 45.4696 73.2314 44.9015 73.8538Z" fill="black"/>
<path d="M57.5713 82.9135H55.2827V70.8109H61.0611C63.8692 70.8109 65.0703 72.0211 65.0703 74.8566C65.0703 77.6921 63.8692 78.9196 61.0611 78.9196H57.5713V82.9135ZM57.5713 73.0931V76.6374H60.9313C62.2298 76.6374 62.7979 76.1014 62.7979 74.8566C62.7979 73.6291 62.2298 73.0931 60.9313 73.0931H57.5713Z" fill="black"/>
<path d="M72.6143 74.4762H70.4718C70.4718 71.7964 71.8514 70.6553 75.0166 70.6553C78.1331 70.6553 79.4965 71.7964 79.4965 74.4935C79.4965 76.2743 78.8635 77.2944 77.4351 77.7612L73.7505 79.0233C73.1013 79.2308 72.8253 79.6285 72.8253 80.3892V80.7869H79.464V82.9135H70.699V80.6486C70.699 78.7467 71.397 77.571 72.7766 77.1042L76.4774 75.8421C77.1105 75.6346 77.3539 75.2715 77.3539 74.5281C77.3539 73.3006 76.6073 72.7819 74.9679 72.7819C73.3447 72.7819 72.6143 73.3006 72.6143 74.4762Z" fill="black"/>
<path d="M85.9702 70.6553C89.5412 70.6553 91.0345 72.5052 91.0345 76.8622C91.0345 81.2191 89.5412 83.0691 85.9702 83.0691C82.4155 83.0691 80.8898 81.2018 80.8898 76.8622C80.8898 72.5052 82.4155 70.6553 85.9702 70.6553ZM83.0161 76.8622C83.0161 79.6976 83.9413 80.9425 85.9702 80.9425C88.0479 80.9425 88.9081 79.7149 88.9081 76.8622C88.9081 73.9748 88.0479 72.7819 85.9702 72.7819C83.9413 72.7819 83.0161 74.0094 83.0161 76.8622Z" fill="black"/>
<path d="M33.3803 72.0589H28.9653V69.7767H40.084V72.0589H35.669V81.8793H33.3803V72.0589Z" fill="white"/>
<path d="M46.5775 69.6211C50.6516 69.6211 52.4046 71.4711 52.4046 75.828C52.4046 80.1676 50.6516 82.0349 46.5775 82.0349C42.4871 82.0349 40.7503 80.1676 40.7503 75.828C40.7503 71.4711 42.4871 69.6211 46.5775 69.6211ZM43.8668 72.8196C43.2987 73.4593 43.0228 74.4621 43.0228 75.828C43.0228 77.1939 43.2987 78.1966 43.8668 78.8191C44.4349 79.4415 45.3276 79.7527 46.5775 79.7527C47.8273 79.7527 48.72 79.4415 49.2881 78.8191C49.8562 78.1966 50.1322 77.1939 50.1322 75.828C50.1322 74.4621 49.8562 73.4593 49.2881 72.8196C48.72 72.1972 47.8273 71.886 46.5775 71.886C45.3276 71.886 44.4349 72.1972 43.8668 72.8196Z" fill="white"/>
<path d="M56.5367 81.8793H54.248V69.7767H60.0265C62.8345 69.7767 64.0357 70.987 64.0357 73.8224C64.0357 76.6579 62.8345 77.8854 60.0265 77.8854H56.5367V81.8793ZM56.5367 72.0589V75.6032H59.8966C61.1951 75.6032 61.7632 75.0673 61.7632 73.8224C61.7632 72.5949 61.1951 72.0589 59.8966 72.0589H56.5367Z" fill="white"/>
<path d="M71.5797 73.4421H69.4371C69.4371 70.7622 70.8168 69.6211 73.9819 69.6211C77.0984 69.6211 78.4618 70.7622 78.4618 73.4593C78.4618 75.2402 77.8288 76.2602 76.4004 76.727L72.7159 77.9892C72.0666 78.1966 71.7907 78.5943 71.7907 79.355V79.7527H78.4294V81.8793H69.6643V79.6144C69.6643 77.7125 70.3623 76.5369 71.742 76.07L75.4428 74.8079C76.0758 74.6004 76.3193 74.2374 76.3193 73.4939C76.3193 72.2664 75.5726 71.7477 73.9332 71.7477C72.3101 71.7477 71.5797 72.2664 71.5797 73.4421Z" fill="white"/>
<path d="M84.9356 69.6211C88.5065 69.6211 89.9998 71.4711 89.9998 75.828C89.9998 80.1849 88.5065 82.0349 84.9356 82.0349C81.3809 82.0349 79.8551 80.1676 79.8551 75.828C79.8551 71.4711 81.3809 69.6211 84.9356 69.6211ZM81.9814 75.828C81.9814 78.6635 82.9066 79.9083 84.9356 79.9083C87.0132 79.9083 87.8735 78.6807 87.8735 75.828C87.8735 72.9407 87.0132 71.7477 84.9356 71.7477C82.9066 71.7477 81.9814 72.9752 81.9814 75.828Z" fill="white"/>
<path d="M77.5862 32.819C77.6091 40.1437 73.2483 46.7608 66.4901 49.5902C59.7321 52.4196 51.9466 50.9136 46.741 45.7568C41.5355 40.6 39.9601 32.819 42.7227 26.0422C45.4853 19.2653 52.0836 14.8387 59.3896 14.793C69.4126 14.7702 77.5406 22.8249 77.5862 32.819Z" fill="white"/>
<path d="M76.2379 32.8205C76.2607 39.5974 72.2196 45.7125 65.9638 48.3365C59.708 50.9606 52.5161 49.5459 47.6987 44.7998C42.8812 40.0309 41.42 32.8433 43.9772 26.5912C46.5343 20.3163 52.6303 16.2319 59.3884 16.1862C68.6579 16.1406 76.1922 23.5792 76.2379 32.8205Z" fill="#F9E988"/>
<path d="M59.7993 17.2575C60.8724 17.075 61.9455 17.075 63.0184 17.2575C64.0915 17.4172 65.1418 17.7823 66.1007 18.2843C67.0597 18.8091 67.8816 19.5165 68.7035 20.1782C69.5254 20.8399 70.3473 21.5244 71.1236 22.2774C71.9228 23.0076 72.6077 23.8519 73.1785 24.7646C73.772 25.6773 74.2515 26.6585 74.6169 27.6624C75.3246 29.716 75.553 31.9293 75.2105 34.0286H75.0963C74.7538 31.9293 74.2744 29.9441 73.521 28.0503C73.1785 27.092 72.7447 26.1565 72.288 25.2666C71.7858 24.3767 71.2606 23.4868 70.667 22.6653C70.0733 21.8211 69.3199 21.0681 68.4753 20.452C67.6304 19.8359 66.6486 19.448 65.7127 19.0829C64.7766 18.7179 63.8175 18.33 62.8359 18.0333C61.8541 17.7595 60.8495 17.5313 59.7993 17.326V17.2575Z" fill="white"/>
<path d="M67.9727 26.9086C66.7626 26.5663 65.5068 26.0643 64.2283 25.5623C64.1598 25.2429 63.863 24.8549 63.2922 24.3529C62.4703 23.6228 60.895 23.6456 59.5479 23.9651C58.0639 23.6228 56.5797 23.4859 55.1642 23.8281C43.5887 27.0226 50.1413 34.7807 45.8947 42.6072C46.4883 43.885 53.0181 51.3693 62.4475 49.3613C62.4475 49.3613 59.2282 41.626 66.5114 37.9067C72.4248 34.8947 76.6714 29.2816 67.9727 26.9086Z" fill="#8BC53F"/>
<path d="M59.5503 23.9674C60.3951 24.0358 63.4545 25.017 64.2308 25.5646C63.5687 23.6707 61.3768 23.4197 59.5503 23.9674Z" fill="#009345"/>
<path d="M69.411 31.9978C69.411 32.6139 68.6575 32.9334 68.2238 32.4999C67.7899 32.0663 68.0868 31.3133 68.7033 31.2906C69.0914 31.3133 69.411 31.6099 69.411 31.9978ZM60.347 28.7805C60.347 30.0811 59.5479 31.2676 58.3378 31.7697C57.1277 32.2716 55.735 31.9978 54.7989 31.0623C53.8628 30.1268 53.5889 28.7349 54.0912 27.5256C54.5934 26.3162 55.7807 25.5176 57.082 25.5176C57.9496 25.5176 58.7715 25.8599 59.3652 26.4531C60.0045 27.092 60.347 27.9135 60.347 28.7805Z" fill="white"/>
<path d="M59.388 28.8026C59.388 29.7153 58.84 30.5596 57.9725 30.9019C57.1277 31.2442 56.1459 31.0616 55.4838 30.4C54.8217 29.7382 54.639 28.7798 54.9815 27.9127C55.324 27.0685 56.1687 26.498 57.082 26.498C58.3605 26.5209 59.388 27.5477 59.388 28.8026Z" fill="#58595B"/>
<path d="M72.0381 33.4351C69.4125 35.2835 66.4215 36.6754 62.1978 36.6754C60.2114 36.6754 59.8233 34.5761 58.4992 35.6029C57.8141 36.1277 55.4397 37.3143 53.5447 37.2458C51.6497 37.1545 48.5902 36.0365 47.7455 32.0205C47.403 36.0592 47.2432 39.0256 45.7135 42.4255C48.7272 47.2629 55.9191 50.9821 62.4489 49.3849C61.7412 44.479 66.0335 39.6873 68.4307 37.2458C69.3668 36.2875 71.1248 34.7814 72.0381 33.4351Z" fill="#8BC53F"/>
<path d="M71.9242 33.5483C71.1022 34.3014 70.1433 34.8489 69.1616 35.3282C68.157 35.8073 67.1295 36.1724 66.0564 36.469C64.9835 36.7428 63.8647 36.9482 62.7459 36.8569C61.6043 36.7656 60.4628 36.3778 59.7094 35.5335L59.7551 35.488C60.6682 36.0812 61.7413 36.2865 62.7916 36.3322C63.8647 36.355 64.9378 36.2865 65.9879 36.0812C67.0382 35.8531 68.0885 35.5335 69.0931 35.1227C70.0977 34.7121 71.0794 34.233 71.947 33.5483H71.9242Z" fill="#58595B"/>
<path d="M46.3584 96.7528V97.4568H42.4138V92.428H46.3584V93.1321H43.1273V94.612H46.0154V95.2729H43.1273V96.7528H46.3584Z" fill="white"/>
<path d="M47.7569 97.4568H46.9131L48.3949 95.5674L46.9474 93.7211H47.7912L48.8202 95.0358L49.8493 93.7211H50.693L49.2524 95.5674L50.7273 97.4568H49.8836L48.8202 96.099L47.7569 97.4568Z" fill="white"/>
<path d="M52.8869 97.5142C51.6452 97.5142 51.1101 96.9395 51.1101 95.589C51.1101 94.2456 51.6452 93.6637 52.8869 93.6637C53.9776 93.6637 54.5059 94.1019 54.6362 95.0861H53.9708C53.8542 94.5617 53.5249 94.3246 52.9006 94.3246C52.1117 94.3246 51.7824 94.6982 51.7824 95.589C51.7824 96.4726 52.1254 96.8533 52.9006 96.8533C53.5249 96.8533 53.8542 96.6163 53.9708 96.0918H54.6362C54.5059 97.0904 53.9776 97.5142 52.8869 97.5142Z" fill="white"/>
<path d="M55.4424 97.4568V92.0688H56.1147V94.224C56.3616 93.8505 56.7938 93.6637 57.4112 93.6637C58.4471 93.6637 58.8999 94.1665 58.8999 95.316V97.4568H58.2344V95.316C58.2344 94.6263 57.912 94.3246 57.2191 94.3246C56.4439 94.3246 56.1147 94.6982 56.1147 95.589V97.4568H55.4424Z" fill="white"/>
<path d="M61.1389 97.5142C60.1854 97.5142 59.7669 97.1766 59.7669 96.3936C59.7669 95.5818 60.2265 95.2585 61.3173 95.2585H62.5315C62.5315 94.576 62.216 94.2815 61.4957 94.2815C60.9194 94.2815 60.6244 94.4683 60.5147 94.8993H59.8492C59.9796 94.0372 60.4804 93.6637 61.5231 93.6637C62.6962 93.6637 63.2038 94.145 63.2038 95.2441V97.4568H62.5315V96.9755C62.264 97.3347 61.7975 97.5142 61.1389 97.5142ZM60.4392 96.3648C60.4392 96.7384 60.7136 96.8964 61.2967 96.8964C62.0719 96.8964 62.4424 96.6163 62.5315 95.9625V95.7901H61.4888C60.7891 95.7901 60.4392 95.9841 60.4392 96.3648Z" fill="white"/>
<path d="M64.2051 97.4568V93.7211H64.8774V94.224C65.1243 93.8505 65.5565 93.6637 66.1739 93.6637C67.2098 93.6637 67.6626 94.1665 67.6626 95.316V97.4568H66.9971V95.316C66.9971 94.6263 66.6884 94.3246 65.9818 94.3246C65.1929 94.3246 64.8774 94.6982 64.8774 95.589V97.4568H64.2051Z" fill="white"/>
<path d="M70.1074 93.6637C70.7454 93.6637 71.1845 93.8576 71.4383 94.2456V93.7211H72.1106V97.4424C72.1106 98.7427 71.5686 99.3102 70.327 99.3102C69.2499 99.3102 68.7217 98.9151 68.5914 98.0028H69.2568C69.3871 98.4553 69.7096 98.6493 70.3201 98.6493C71.109 98.6493 71.4383 98.2829 71.4383 97.428V96.9324C71.1845 97.3203 70.7454 97.5142 70.1074 97.5142C68.9618 97.5142 68.4747 96.9324 68.4747 95.589C68.4747 94.2384 68.9618 93.6637 70.1074 93.6637ZM69.4214 96.5516C69.5998 96.7528 69.8879 96.8533 70.2858 96.8533C70.6837 96.8533 70.9718 96.7528 71.157 96.5516C71.3354 96.3576 71.4246 96.0344 71.4246 95.589C71.4246 94.7053 71.0816 94.3246 70.2858 94.3246C69.49 94.3246 69.147 94.7053 69.147 95.589C69.147 96.0344 69.2362 96.3576 69.4214 96.5516Z" fill="white"/>
<path d="M73.3687 97.0545C73.0805 96.7456 72.9365 96.2571 72.9365 95.589C72.9365 94.9209 73.0805 94.4324 73.3687 94.1234C73.6499 93.8145 74.1164 93.6637 74.7544 93.6637C76.0235 93.6637 76.5518 94.2456 76.5518 95.589C76.5518 95.6392 76.5449 95.7542 76.5449 95.8045H73.6225C73.6705 96.5516 74.0272 96.8964 74.7613 96.8964C75.2963 96.8964 75.6394 96.7025 75.7834 96.3217H76.4831C76.2911 97.2053 75.6874 97.5142 74.7544 97.5142C74.1164 97.5142 73.6499 97.3634 73.3687 97.0545ZM74.7613 94.2815C74.0753 94.2815 73.7117 94.576 73.6362 95.2729H75.8795C75.804 94.5617 75.4541 94.2815 74.7613 94.2815Z" fill="white"/>
<path d="M38.793 94.9653H31.0344" stroke="white" stroke-width="0.517241" stroke-linecap="round" stroke-linejoin="round"/>
<path d="M87.4139 94.9653H79.6553" stroke="white" stroke-width="0.517241" stroke-linecap="round" stroke-linejoin="round"/>
<defs>
<linearGradient id="paint0_linear_1744_43757" x1="15" y1="-2.06897" x2="99.3103" y2="82.2414" gradientUnits="userSpaceOnUse">
<stop stop-color="#9DE144"/>
<stop offset="1" stop-color="#559305"/>
</linearGradient>
<linearGradient id="paint1_linear_1744_43757" x1="83.7931" y1="62.3796" x2="73.4483" y2="104.276" gradientUnits="userSpaceOnUse">
<stop/>
<stop offset="1" stop-color="#4D4949"/>
</linearGradient>
</defs>
</svg>
