<svg width="80" height="81" viewBox="0 0 80 81" fill="none" xmlns="http://www.w3.org/2000/svg">
<rect y="0.307617" width="80" height="80" rx="16" fill="#4091DC" fill-opacity="0.1"/>
<path d="M53.333 48.6409H48.333C45.5716 48.6409 43.333 46.4023 43.333 43.6409C43.333 40.8794 45.5716 38.6409 48.333 38.6409H53.333V35.3075C53.333 33.4666 51.8406 31.9742 49.9997 31.9742H27.4997C27.2143 31.9742 26.9356 31.9455 26.6663 31.8909V50.3075C26.6663 52.1485 28.1587 53.6409 29.9997 53.6409H49.9997C51.8406 53.6409 53.333 52.1485 53.333 50.3075V48.6409ZM53.333 45.3075V41.9742H48.333C47.4125 41.9742 46.6663 42.7204 46.6663 43.6409C46.6663 44.5613 47.4125 45.3075 48.333 45.3075H53.333ZM27.4997 28.6409H46.6663C46.6663 27.7204 45.9202 26.9742 44.9997 26.9742H27.4997C27.0394 26.9742 26.6663 27.3473 26.6663 27.8075C26.6663 28.2678 27.0394 28.6409 27.4997 28.6409ZM49.9997 28.6409C53.6816 28.6409 56.6663 31.6256 56.6663 35.3075V50.3075C56.6663 53.9894 53.6816 56.9742 49.9997 56.9742H29.9997C26.3178 56.9742 23.333 53.9894 23.333 50.3075V28.6409C23.333 28.5307 23.3437 28.4231 23.3641 28.3189C23.3436 28.1513 23.333 27.9807 23.333 27.8075C23.333 25.5063 25.1985 23.6409 27.4997 23.6409H44.9997C47.7611 23.6409 49.9997 25.8794 49.9997 28.6409Z" fill="#0084FF"/>
</svg>
