<svg width="106" height="114" viewBox="0 0 106 114" fill="none" xmlns="http://www.w3.org/2000/svg">
<path d="M100.972 56.8511C98.4484 64.1601 96.1333 71.5947 92.5277 78.5086C89.9416 83.6259 86.5506 88.3426 82.4701 92.4979C78.8107 96.1805 74.6349 99.3708 70.0594 101.98C64.9737 104.889 59.4516 107.008 54.0053 109.217C53.5688 109.36 53.0944 109.72 52.639 109.432C46.4337 106.918 40.1334 104.476 34.4405 100.974C28.1826 97.1437 22.7482 92.2263 18.4242 86.4819C14.0026 80.5737 10.9664 73.8755 8.53744 67.0334C7.37986 63.8548 6.31715 60.6224 5.2355 57.4258C5.06471 56.905 4.72312 56.3663 4.98883 55.8096C9.08773 43.1432 13.212 30.4768 17.3616 17.8105C17.6842 16.9125 17.8739 15.9427 18.2914 15.0628C20.7014 14.2367 23.1494 13.5543 25.5784 12.7822C34.6239 9.9567 43.6694 7.14337 52.7149 4.34182C53.0185 4.21624 53.3411 4.3599 53.6447 4.44956C65.0117 7.98739 76.3597 11.5969 87.7266 15.0808C88.5046 17.2177 89.1879 19.3908 89.871 21.5637C93.5714 32.7515 97.158 43.9752 100.782 55.1811C100.972 55.7198 101.257 56.2944 100.972 56.8511ZM105.375 55.6839C100.877 41.4072 96.1902 27.1845 91.503 12.9797C91.3322 12.4409 91.0286 11.8663 90.4024 11.7226L53.8724 0.31926C53.379 0.139679 52.8477 0.0498962 52.3543 0.283348C40.804 3.89895 29.2408 7.49646 17.6652 11.0761C16.7543 11.3994 15.7106 11.5251 14.9325 12.0997C14.496 12.7283 14.4011 13.5184 14.1355 14.2188C9.61908 28.0824 5.00775 41.9101 0.605193 55.8096C0.320557 56.492 0.681123 57.1744 0.88988 57.8388C2.44594 62.4721 4.00204 67.1232 5.76686 71.7024C8.21483 78.1674 11.4219 84.4167 15.7865 89.912C19.9683 95.2558 25.0909 99.8786 30.9298 103.578C37.23 107.672 44.3272 110.42 51.3296 113.203C52.0127 113.437 52.6959 113.85 53.4549 113.67C54.214 113.491 55.1438 113.024 55.9978 112.719C63.7972 109.702 71.6155 106.415 78.2953 101.459C82.7041 98.2483 86.6304 94.4844 89.9659 90.2711C93.2511 86.0908 95.9791 81.543 98.0878 76.7308C100.915 70.5172 102.984 64.0165 105.223 57.6054C105.432 56.9948 105.641 56.3124 105.375 55.6839Z" fill="#484D59" fill-opacity="0.835294"/>
<path d="M99.9932 56.8527C97.5208 64.0238 95.253 71.3181 91.721 78.1016C89.1876 83.1223 85.8658 87.75 81.8687 91.8269C78.284 95.44 74.1934 98.5701 69.7112 101.13C64.7294 103.984 59.3199 106.063 53.9847 108.23C53.5572 108.371 53.0924 108.724 52.6463 108.442C46.5677 105.975 40.3959 103.579 34.8192 100.143C28.6891 96.385 23.3655 91.5605 19.1299 85.9244C14.7985 80.1278 11.8242 73.5558 9.44482 66.8429C8.31086 63.7243 7.26985 60.5529 6.21027 57.4166C6.04296 56.9056 5.70835 56.377 5.96863 55.8308C9.98388 43.4035 14.024 30.9761 18.0889 18.5487C18.4049 17.6676 18.5908 16.7162 18.9997 15.8529C21.3606 15.0424 23.7586 14.3729 26.138 13.6152C34.9989 10.8431 43.8598 8.08286 52.7207 5.33416C53.0181 5.21095 53.3341 5.3519 53.6315 5.43988C64.7665 8.91095 75.883 12.4524 87.0178 15.8705C87.78 17.9671 88.4493 20.0992 89.1185 22.2311C92.7434 33.2079 96.2568 44.2198 99.8073 55.2142C99.9932 55.7428 100.272 56.3066 99.9932 56.8527Z" fill="#211C1D"/>
<path d="M99.9932 56.8527C97.5208 64.0238 95.253 71.3181 91.721 78.1016C89.1876 83.1223 85.8658 87.75 81.8687 91.8269C78.284 95.44 74.1934 98.5701 69.7112 101.13C64.7294 103.984 59.3199 106.063 53.9847 108.23C53.5572 108.371 53.0924 108.724 52.6463 108.442C46.5677 105.975 40.3959 103.579 34.8192 100.143C28.6891 96.385 23.3655 91.5605 19.1299 85.9244C14.7985 80.1278 11.8242 73.5558 9.44482 66.8429C8.31086 63.7243 7.26985 60.5529 6.21027 57.4166C6.04296 56.9056 5.70835 56.377 5.96863 55.8308C9.98388 43.4035 14.024 30.9761 18.0889 18.5487C18.4049 17.6676 18.5908 16.7162 18.9997 15.8529C21.3606 15.0424 23.7586 14.3729 26.138 13.6152C34.9989 10.8431 43.8598 8.08286 52.7207 5.33416C53.0181 5.21095 53.3341 5.3519 53.6315 5.43988C64.7665 8.91095 75.883 12.4524 87.0178 15.8705C87.78 17.9671 88.4493 20.0992 89.1185 22.2311C92.7434 33.2079 96.2568 44.2198 99.8073 55.2142C99.9932 55.7428 100.272 56.3066 99.9932 56.8527Z" fill="url(#paint0_linear_1744_43795)"/>
<path fill-rule="evenodd" clip-rule="evenodd" d="M35.2487 98.0015C30.5258 95.004 26.3824 91.2584 23 86.9286H27.3984C30.4632 90.4021 34.0654 93.425 38.0882 95.8917C42.3344 98.5081 46.9984 100.394 51.6347 102.27C52.0261 102.428 52.4173 102.586 52.8081 102.745C53.0889 102.922 53.3787 102.795 53.657 102.673C53.7437 102.635 53.8293 102.598 53.9132 102.57C54.4011 102.372 54.8897 102.175 55.3786 101.977C59.3035 100.392 63.2407 98.8026 66.8986 96.7065C70.5995 94.5926 73.9771 92.0077 76.937 89.0239C77.5132 88.4361 78.0724 87.8345 78.6141 87.2196H83C80.3021 90.6334 77.1263 93.6831 73.5602 96.2844C68.1573 100.3 61.8334 102.963 55.5249 105.408C55.2655 105.5 54.9976 105.612 54.7315 105.722C54.2889 105.906 53.8515 106.088 53.4681 106.179C52.9915 106.292 52.5519 106.115 52.1206 105.942C51.9963 105.892 51.8727 105.843 51.749 105.8C51.509 105.705 51.2688 105.609 51.0286 105.514C45.5997 103.354 40.1286 101.178 35.2487 98.0015Z" fill="#131F2F"/>
<path fill-rule="evenodd" clip-rule="evenodd" d="M35.2487 98.0015C30.5258 95.004 26.3824 91.2584 23 86.9286H27.3984C30.4632 90.4021 34.0654 93.425 38.0882 95.8917C42.3344 98.5081 46.9984 100.394 51.6347 102.27C52.0261 102.428 52.4173 102.586 52.8081 102.745C53.0889 102.922 53.3787 102.795 53.657 102.673C53.7437 102.635 53.8293 102.598 53.9132 102.57C54.4011 102.372 54.8897 102.175 55.3786 101.977C59.3035 100.392 63.2407 98.8026 66.8986 96.7065C70.5995 94.5926 73.9771 92.0077 76.937 89.0239C77.5132 88.4361 78.0724 87.8345 78.6141 87.2196H83C80.3021 90.6334 77.1263 93.6831 73.5602 96.2844C68.1573 100.3 61.8334 102.963 55.5249 105.408C55.2655 105.5 54.9976 105.612 54.7315 105.722C54.2889 105.906 53.8515 106.088 53.4681 106.179C52.9915 106.292 52.5519 106.115 52.1206 105.942C51.9963 105.892 51.8727 105.843 51.749 105.8C51.509 105.705 51.2688 105.609 51.0286 105.514C45.5997 103.354 40.1286 101.178 35.2487 98.0015Z" fill="url(#paint1_linear_1744_43795)"/>
<path d="M46.8199 16.8212C46.792 16.484 46.3887 16.4278 46.1383 16.5543C45.888 16.6807 45.582 17.3694 45.8184 17.7769C46.4026 18.1422 46.8616 17.3132 46.8199 16.8212Z" fill="url(#paint2_linear_1744_43795)"/>
<path d="M60.3115 17.5099C60.4089 16.9899 59.8943 16.2732 59.3518 16.5964C59.0875 16.9337 59.2823 17.4115 59.5465 17.6926C59.8108 17.9736 60.3393 17.9315 60.3115 17.5099Z" fill="url(#paint3_linear_1744_43795)"/>
<path d="M46.2079 19.196C46.4583 20.0954 47.4459 20.4748 48.2665 20.6574C48.3917 21.4865 48.5586 22.3296 49.0454 23.0182C49.5461 22.7653 49.9912 22.414 50.5058 22.1751C49.8056 20.7551 48.8694 19.467 47.738 18.3669C47.4876 18.1562 47.1816 17.847 46.8199 17.9454C46.4583 18.0438 46.0132 18.6761 46.2079 19.196Z" fill="url(#paint4_linear_1744_43795)"/>
<path d="M57.7385 20.6576C58.2948 20.489 58.879 20.3204 59.3102 19.9129C59.7413 19.5054 59.95 19.126 59.7831 18.6482C59.6811 18.2833 59.3858 18.0067 59.0181 17.9315C58.7538 17.8894 58.5452 18.1002 58.3644 18.2547C57.1726 19.3669 56.2004 20.6972 55.4991 22.1753C56.0276 22.4563 56.5283 22.7514 57.0569 23.0465C57.3628 22.2736 57.6549 21.4867 57.7385 20.6576Z" fill="url(#paint5_linear_1744_43795)"/>
<path d="M31.5897 26.124C31.8957 25.8991 32.3547 25.7586 32.4938 25.3792C32.2017 24.241 31.5897 23.2011 31.089 22.1472C30.6828 22.3676 30.2924 22.6164 29.9207 22.892C30.0667 23.4564 30.2623 24.0066 30.5049 24.5361C30.783 25.1122 31.0334 25.7586 31.5897 26.124Z" fill="url(#paint6_linear_1744_43795)"/>
<path d="M73.9422 24.016C73.7058 24.4938 73.4693 24.9996 73.4554 25.5336C73.817 25.7585 74.3734 26.2784 74.735 25.7866C75.3381 24.9099 75.7766 23.9286 76.0285 22.8918C75.6747 22.5907 75.2816 22.3401 74.8602 22.1471C74.5125 22.7654 74.2343 23.3977 73.9422 24.016Z" fill="url(#paint7_linear_1744_43795)"/>
<path d="M59.2684 34.1617C58.0583 32.7705 56.264 32.1241 54.5115 31.815C52.759 31.5058 50.7422 31.8431 49.0314 32.5738C47.5988 33.2061 46.3469 34.3162 45.6654 35.7496C45.2203 36.677 45.0951 37.745 44.6222 38.6725C44.5012 38.4897 44.4381 38.274 44.4414 38.0541C44.3858 35.876 45.5402 33.7401 47.3206 32.5316C49.101 31.3231 50.9647 30.9859 52.9259 31.014C55.1096 30.9578 57.4462 31.4074 59.1571 32.897C60.4785 34.0633 61.3964 35.7215 61.5633 37.492C61.5912 37.9276 61.6051 38.3773 61.4382 38.7849C61.1043 38.307 60.9931 37.7028 60.8123 37.1548C60.4645 36.0447 59.9916 35.0048 59.2545 34.1476L59.2684 34.1617ZM48.3082 27.0793C48.0629 26.4159 48.3915 25.6766 49.0453 25.4211C49.546 25.2947 50.158 25.4352 50.4362 25.913C50.7144 26.3907 50.5614 27.5571 49.8242 27.796C49.2197 28.0238 48.5467 27.7133 48.3212 27.1026C48.3166 27.0902 48.3123 27.0778 48.3082 27.0652V27.0793ZM56.1527 25.4211C57.029 25.112 57.961 26.0254 57.6827 26.9247C57.4045 27.8241 56.2779 28.1895 55.6659 27.529C55.0539 26.8685 55.2626 25.66 56.1527 25.4211ZM63.0238 39.9793C63.0933 38.0401 62.6204 36.1149 61.8554 34.3584C60.8963 32.2437 59.2461 30.527 57.182 29.4964C58.4895 28.8921 59.171 27.1777 58.6286 25.8146C58.0861 24.4515 56.5422 23.4117 55.0957 22.9058C53.6491 22.3999 51.6185 22.4702 50.0746 23.229C49.2818 23.5944 48.489 24.044 47.9187 24.7326C47.3485 25.4211 46.9451 26.7842 47.3206 27.8242C47.5918 28.5439 48.1034 29.1454 48.7672 29.5245C47.782 30.0128 46.8842 30.6634 46.1105 31.4496C44.1076 33.4169 43.1618 36.2554 43.0227 39.0238C43.0366 39.4313 42.8975 39.9091 43.2035 40.2463C43.9546 41.1597 45.123 41.5251 46.2078 41.8342C48.4333 42.4244 50.7422 42.6071 53.0372 42.6352C55.6659 42.6071 58.3226 42.3682 60.8401 41.5532C61.6607 41.23 62.6204 40.8225 63.0238 39.9793Z" fill="url(#paint8_linear_1744_43795)"/>
<path d="M32.2989 26.405C32.2572 26.7141 32.4658 26.967 32.6049 27.22C32.9975 27.8345 33.4914 28.3763 34.0654 28.822C34.2044 28.9485 34.427 28.8923 34.5939 28.9344C34.9833 28.541 35.4423 28.1756 35.651 27.6415C35.8596 27.1076 35.345 26.9951 35.0529 26.8265C34.3992 26.4893 33.7176 26.1942 32.9805 26.0677C32.7023 25.9974 32.4798 26.1942 32.2989 26.405Z" fill="url(#paint9_linear_1744_43795)"/>
<path d="M71.3692 28.9624L71.7864 28.8922C72.5319 28.3657 73.1422 27.6672 73.5668 26.8545C73.831 26.447 73.3442 25.9411 72.927 26.0676C72.5097 26.1941 71.9534 26.3627 71.4805 26.5594C71.0076 26.7562 70.5764 26.9669 70.2982 27.3885C70.2704 28.0912 70.9241 28.5409 71.3692 28.9624Z" fill="url(#paint10_linear_1744_43795)"/>
<path d="M35.2755 29.9463C35.7623 30.8878 36.7082 31.4639 37.5288 32.0681C39.2535 33.2204 40.9504 34.4148 42.7585 35.4407C42.9671 34.7802 43.2592 34.176 43.5096 33.5436C43.2534 33.1801 42.9697 32.8371 42.6611 32.5178C41.4928 31.2672 40.3245 30.0025 39.0866 28.794C38.4607 28.2319 37.7792 27.6276 36.9029 27.5714C36.4161 27.5433 36.0961 27.9789 35.8179 28.3022C35.5398 28.6254 34.9973 29.342 35.2755 29.9463Z" fill="url(#paint11_linear_1744_43795)"/>
<path d="M64.6512 34.5833C66.1117 33.6278 67.5721 32.7003 68.9909 31.6745C69.5889 31.2249 70.2148 30.7471 70.6043 30.0866C70.8686 29.6651 70.7156 29.1311 70.4374 28.7517C70.1592 28.3723 69.8949 27.8523 69.4081 27.6555C68.9213 27.4588 68.0867 27.8382 67.5582 28.2177C66.8071 28.8079 66.1395 29.5246 65.4718 30.1991C64.4565 31.267 63.4273 32.3209 62.4536 33.431C62.7179 34.0774 63.0239 34.7238 63.2464 35.3983C63.7348 35.1637 64.2045 34.8912 64.6512 34.5833Z" fill="url(#paint12_linear_1744_43795)"/>
<path d="M26.9024 36.0588C27.5839 36.6912 28.3906 37.3516 29.3503 37.4219C29.6007 37.1127 29.851 36.4804 29.4059 36.2274C28.5436 35.7075 27.6256 35.3141 26.7772 34.766L26.6798 34.8222C26.5008 34.9306 26.341 35.0683 26.2069 35.2297C26.3182 35.567 26.652 35.7918 26.9024 36.0588Z" fill="url(#paint13_linear_1744_43795)"/>
<path d="M79.325 34.7661C78.8103 34.9769 78.3513 35.3282 77.8506 35.567C77.3499 35.8059 76.8214 36.0027 76.418 36.3821C76.0147 36.7615 76.4736 37.2674 76.7935 37.4922C78.0592 37.1549 79.0329 36.2275 79.9092 35.3001C79.7372 35.0981 79.541 34.9188 79.325 34.7661Z" fill="url(#paint14_linear_1744_43795)"/>
<path d="M34.2601 38.8693C35.8596 38.9958 37.4175 38.532 39.0031 38.3915C40.0184 38.4336 40.9781 38.8131 41.9656 39.0661C42.063 38.4055 42.216 37.731 42.2438 37.0565C42.1325 36.902 41.9378 36.8457 41.7848 36.7614C40.6721 36.2696 39.5455 35.7216 38.3215 35.6513C37.1077 35.5793 35.8906 35.5841 34.6773 35.6654C34.274 35.7216 33.7454 35.7918 33.6064 36.2415C33.5063 36.8831 33.4922 37.5353 33.5646 38.1807C33.5507 38.5742 33.8984 38.8412 34.2601 38.8693Z" fill="url(#paint15_linear_1744_43795)"/>
<path d="M71.7029 38.8413C72.0368 38.8413 72.4123 38.6587 72.454 38.2792C72.5233 37.6441 72.5233 37.0032 72.454 36.3681C72.4123 35.8481 71.8281 35.7498 71.4109 35.6936C70.0597 35.5768 68.7014 35.5721 67.3494 35.6795C66.0785 35.9078 64.8641 36.3852 63.7748 37.0847C63.7887 37.7452 63.9696 38.3916 64.053 39.0381C65.0544 38.7991 66.042 38.3775 67.0851 38.3775C68.6152 38.6024 70.1452 38.9678 71.7029 38.8413Z" fill="url(#paint16_linear_1744_43795)"/>
<path d="M32.8692 38.0259C32.9666 37.5059 32.8831 36.9579 32.8831 36.438C32.2712 35.918 31.3949 36.1991 30.7273 36.4239C30.0597 36.6487 29.9206 37.1968 30.0597 37.7308C30.6903 37.9861 31.3486 38.1653 32.0208 38.2647C32.3129 38.2928 32.7162 38.3491 32.8692 38.0259Z" fill="url(#paint17_linear_1744_43795)"/>
<path d="M74.1787 36.1713C73.8032 36.1572 73.2885 36.087 73.0799 36.4945C72.9874 37.057 73.0207 37.6331 73.1773 38.1808C73.4574 38.285 73.7606 38.3093 74.0535 38.251C74.6794 38.1245 75.3192 38.0121 75.8895 37.717C76.0147 37.4079 75.9034 37.0144 75.7365 36.7334C75.3192 36.3399 74.7211 36.2275 74.1787 36.1713Z" fill="url(#paint18_linear_1744_43795)"/>
<path d="M32.4937 46.0781C32.146 46.4294 32.3407 46.9774 32.5493 47.3568C32.7579 47.7362 33.1335 48.3967 33.662 48.6355C34.1905 48.8744 34.3992 48.6074 34.6913 48.4388C36.0682 47.5254 37.0559 46.1483 38.2381 45.0101C38.7805 44.4621 39.5038 44.1951 40.2549 44.0686C40.5609 44.0686 40.7 43.7594 40.839 43.5346C41.2841 42.7899 41.8405 42.1013 42.3134 41.3706C42.369 41.2441 42.5637 40.9631 42.3134 40.9209C42.063 40.8788 41.6179 41.0052 41.2841 41.0755C40.1297 41.3706 38.9614 41.6657 37.8208 42.031C36.6803 42.3964 36.0265 43.1271 35.192 43.7735C34.3575 44.4199 33.2865 45.1928 32.4937 46.0781Z" fill="url(#paint19_linear_1744_43795)"/>
<path d="M64.5121 42.4666C64.8877 42.9865 65.2215 43.5345 65.5692 44.0685C66.4176 44.1809 67.2382 44.4901 67.8502 45.1224C68.8657 46.2185 69.8393 47.3567 70.9798 48.3122C71.4249 48.6636 72.0925 48.9305 72.5793 48.4949C73.0661 48.0593 73.6642 47.3567 73.7616 46.5979C73.6086 45.9936 73.0383 45.6283 72.6071 45.2348C71.5918 44.3917 70.5486 43.5907 69.5194 42.7476C68.49 41.9045 67.4747 41.8202 66.3898 41.511C65.3049 41.2019 64.5677 40.963 63.608 40.9068C63.7193 41.5251 64.1644 41.9747 64.5121 42.4666Z" fill="url(#paint20_linear_1744_43795)"/>
<path d="M47.2233 62.491C47.1955 62.9829 47.2372 63.6012 46.7642 63.9103C46.3887 63.3623 46.4443 62.6878 46.4304 62.0554C46.4119 56.9029 46.4119 51.7504 46.4304 46.5979C46.4211 46.3735 46.4542 46.1494 46.5277 45.9374C47.0146 45.7407 47.2511 46.4995 47.2233 46.8789C47.265 50.1532 47.2233 53.4273 47.2511 56.7015C47.265 58.6407 47.2789 60.5659 47.2372 62.491H47.2233ZM44.2189 45.8953C44.0937 46.6541 43.7738 47.3708 43.5373 48.1015C42.8398 50.1209 42.3731 52.2142 42.1465 54.3407C42.0491 54.945 42.0769 55.5773 41.8544 56.1534L41.5067 56.1253C41.4588 55.9078 41.4263 55.6871 41.4093 55.4649C41.3258 52.6826 41.8822 49.9002 42.8697 47.3146C43.1618 46.6119 43.3426 45.825 43.8712 45.2489C44.0381 45.4316 44.2884 45.6142 44.2328 45.8953H44.2189ZM43.2731 41.7921C42.8419 42.3541 42.4107 42.9022 42.0074 43.4783C39.0865 47.6096 38.4745 53.1463 39.8654 57.9662C40.7139 60.9172 42.2299 63.6293 44.0659 66.0743C45.6816 68.2176 47.6255 70.0866 49.8242 71.611C50.4918 72.0325 51.1595 72.4822 51.9105 72.7351C52.1748 70.5429 52.4252 68.3367 52.5225 66.1305C52.5318 58.6454 52.5364 51.1649 52.5364 43.6891C49.393 43.6469 46.1661 43.1551 43.2731 41.7921Z" fill="url(#paint21_linear_1744_43795)"/>
<path d="M64.4563 56.1394C64.053 56.2518 64.0252 55.7038 63.9834 55.4228C63.8223 53.1139 63.3976 50.8317 62.7177 48.6214C62.4535 47.694 62.0362 46.8087 61.8832 45.8532C61.8561 45.6876 61.9018 45.5182 62.0084 45.3895C62.2588 45.1084 62.4257 45.5159 62.5369 45.7127C63.7609 48.509 64.5954 51.5303 64.6232 54.6077C64.5815 55.1136 64.7067 55.6757 64.4563 56.1394ZM59.6717 61.915C59.6439 62.5895 59.7134 63.3342 59.2962 63.9104L59.0319 63.7417C58.7537 62.9267 58.8094 62.0555 58.7955 61.2123C58.7955 56.5329 58.7816 51.8395 58.8094 47.16C58.7816 46.6401 58.8928 45.8953 59.5465 45.8672C59.6306 46.2974 59.6679 46.7357 59.6578 47.1741C59.6856 52.0924 59.6995 56.9966 59.6717 61.915ZM62.7873 41.7921C61.8693 42.312 60.854 42.6071 59.8386 42.8882C57.7735 43.4109 55.6528 43.6751 53.5239 43.6751C53.5239 51.2071 53.5378 58.7391 53.4961 66.2711C53.6491 68.4211 53.7882 70.5851 54.0942 72.7211C54.5669 72.5477 55.0232 72.3313 55.4573 72.0747C59.4214 69.6577 62.5508 65.9901 64.665 61.8587C65.8611 59.3714 66.7652 56.6875 66.8487 53.9051C66.9664 52.056 66.7832 50.1999 66.3062 48.4107C65.6803 45.9515 64.3729 43.7313 62.7873 41.7921Z" fill="url(#paint22_linear_1744_43795)"/>
<path d="M32.7441 48.9727C32.7162 48.1998 32.0764 47.6378 31.5896 47.1178C31.0472 47.4129 30.6856 47.9469 30.3935 48.4668C30.1014 48.9868 30.2961 49.6192 30.4769 50.1532C31.3393 50.0689 32.2155 49.6614 32.7441 48.9727Z" fill="url(#paint23_linear_1744_43795)"/>
<path d="M74.4291 47.1319C73.9284 47.6518 73.4555 48.2139 73.2052 48.9024C73.779 49.6431 74.6403 50.0987 75.5697 50.1532C75.7505 49.7457 75.9035 49.2678 75.7644 48.8181C75.5418 48.1015 75.0272 47.5394 74.4291 47.1319Z" fill="url(#paint24_linear_1744_43795)"/>
<path d="M26.1792 49.9986C26.2487 50.2937 26.2209 50.7574 26.5965 50.8417C27.3336 51.0104 28.1125 50.912 28.8636 50.8417C29.2391 50.7855 29.6703 50.7855 29.9485 50.4764C30.2267 50.1672 29.8094 49.7456 29.6425 49.4224C28.4742 49.5769 27.3058 49.7034 26.1792 49.9986Z" fill="url(#paint25_linear_1744_43795)"/>
<path d="M76.4599 50.7435C77.4025 50.9432 78.3727 50.9717 79.3252 50.8278C79.7703 50.7856 79.7564 50.2657 79.812 49.9284C78.7131 49.6894 77.5726 49.6474 76.4738 49.4084C76.1678 49.7597 75.7923 50.6029 76.4599 50.7435Z" fill="url(#paint26_linear_1744_43795)"/>
<path d="M35.4423 52.8654C34.9416 53.2307 34.4131 53.6101 34.0932 54.1582C33.7733 54.7062 33.5229 55.6336 33.356 56.4065C33.0361 57.9944 32.6884 59.5823 32.5215 61.1843C32.438 61.9291 32.5632 62.8144 33.203 63.2781C33.6948 63.5916 34.2628 63.7618 34.8443 63.7699C35.345 63.798 35.6231 63.2922 35.7344 62.8706C36.0573 61.6866 36.1842 60.4569 36.11 59.231C36.0821 58.3457 35.8874 57.4464 36.1239 56.5751C36.3604 55.7039 37.3897 54.8467 38.2659 54.2846C38.2381 53.2588 38.2242 52.233 38.2659 51.2072C37.2506 51.6569 36.3326 52.2471 35.4423 52.8654Z" fill="url(#paint27_linear_1744_43795)"/>
<path d="M73.4973 61.3529C73.3999 60.0178 73.1217 58.711 72.8714 57.4041C72.6627 56.4767 72.5654 55.5352 72.1898 54.6499C71.9101 54.0344 71.4672 53.509 70.9102 53.1323C69.9227 52.4156 68.8934 51.7271 67.7667 51.2633C67.7806 52.2892 67.7528 53.315 67.7667 54.3408C68.6484 54.777 69.3694 55.4858 69.8253 56.3643C70.1174 56.9966 70.0618 57.7273 70.0061 58.4159C69.8628 59.6884 69.8956 60.9748 70.1035 62.2382C70.2148 62.7862 70.3539 63.4326 70.8685 63.7417C71.3831 64.0509 72.0229 63.6012 72.5515 63.3764C73.3025 63.0251 73.5807 62.1257 73.4973 61.3529Z" fill="url(#paint28_linear_1744_43795)"/>
<path d="M33.3978 64.079C33.1475 63.9806 32.9527 64.2336 32.8554 64.4303C32.299 65.6247 32.2573 66.9597 32.1878 68.2525C32.452 68.3368 32.7997 68.5195 33.0223 68.2806C33.5647 67.7606 33.9124 67.0721 34.2741 66.4116C34.6357 65.7512 34.7748 65.428 34.6496 64.88C34.5244 64.3319 33.8707 64.2195 33.3978 64.079Z" fill="url(#paint29_linear_1744_43795)"/>
<path d="M73.7337 68.1963C73.7803 66.9904 73.5912 65.7872 73.1774 64.6551C73.0522 64.4162 72.9549 64.079 72.6628 64.0228C72.3707 63.9666 71.8143 64.2476 71.4805 64.5146C71.1467 64.7816 71.2719 65.428 71.411 65.8496C71.7865 66.7911 72.2594 67.7185 72.9966 68.4211C73.2513 68.3804 73.4993 68.3047 73.7337 68.1963Z" fill="url(#paint30_linear_1744_43795)"/>
<path d="M32.0348 69.1378C31.9374 69.461 31.7983 69.8123 31.9096 70.1636C32.1193 70.4198 32.4178 70.5856 32.7441 70.6273C32.9806 70.4868 33.2588 70.2479 33.1614 69.9387C33.064 69.6296 32.5077 69.2221 32.0348 69.1378Z" fill="url(#paint31_linear_1744_43795)"/>
<path d="M72.6627 69.9809C72.5792 70.3182 72.9547 70.7819 73.3164 70.5992C73.5509 70.5182 73.7582 70.3721 73.9144 70.1776C74.0843 69.8069 73.9939 69.3675 73.6919 69.0956C73.2964 69.3222 72.9471 69.6227 72.6627 69.9809Z" fill="url(#paint32_linear_1744_43795)"/>
<path d="M83.4863 57.9961V61.8785L79.4788 57.9961H77.4537V65.6841H79.9372V61.7495L83.9695 65.6841H85.9662V57.9961H83.4863Z" fill="white"/>
<path d="M45.1274 65.6841H51.7141V63.5373H45.1274V60.1673H51.7212V57.9961H45.1274H42.9318H42.6688V65.6841H42.9318H45.1274Z" fill="white"/>
<path d="M68.3979 65.6841H74.4695V63.7499H68.3979V62.687H74.4695V60.9654H68.3979V59.9303H74.4695V57.9961H68.3979H66.1418H65.9393V65.6841H66.1845H68.3979Z" fill="white"/>
<path d="M33.8653 63.9556H37.5175V65.6981H39.9653V57.9961H31.4138V65.6841H33.8653V63.9556ZM33.8653 60.122H37.5175V61.8297H33.8653V60.122Z" fill="white"/>
<path d="M22.3898 62.9519H25.978V65.6841H28.44V57.9961H25.978V60.6726H22.3898V57.9961H19.9313V65.6841H22.3898V62.9519Z" fill="white"/>
<path d="M56.7946 63.2829H60.6031L63.0438 61.0002H63.0579V57.9961H60.6031V61.0002H56.7946V57.9961H54.3361V65.6841H56.7946V63.2829Z" fill="white"/>
<path d="M63.0651 63.2832H60.6067V65.6844H63.0651V63.2832Z" fill="white"/>
<path d="M28.1027 68.563H19.9313V76.2511H22.3827V74.5085H28.4579V68.563H28.1027ZM26.0207 72.3967H22.3827V70.6994H26.0349L26.0207 72.3967Z" fill="white"/>
<path d="M37.6808 74.0767V76.2619H39.9653V74.0767H37.6808Z" fill="white"/>
<path d="M39.9547 68.563H31.4282V76.2615H33.8901V74.0764H37.6951L39.9797 71.7936L39.9547 68.563ZM37.5247 72.1282H33.8724V70.4485H37.5247V72.1282Z" fill="white"/>
<path d="M74.4623 68.563H68.3977H66.4829H65.95V71.9122V74.0519V76.2511H68.3977V74.0519H74.4623V71.9122H68.3977V70.6994H74.4623V68.563Z" fill="white"/>
<path d="M49.2628 68.563H42.6688V76.2511H51.7212V68.563H49.2628ZM49.2628 74.0659H45.1344V70.696H49.2699L49.2628 74.0659Z" fill="white"/>
<path d="M63.072 68.563H54.3252V76.2511H63.072V70.7342V68.563ZM60.6208 74.0659H56.7908V70.696H60.6208V74.0659Z" fill="white"/>
<path d="M82.0133 74.2631C83.0534 74.0975 83.7597 73.1361 83.5907 72.1158C83.422 71.0957 82.4421 70.4028 81.402 70.5684C80.3619 70.734 79.6556 71.6954 79.8245 72.7157C79.9933 73.7358 80.9732 74.4287 82.0133 74.2631Z" fill="#F13F2D"/>
<path d="M85.7351 71.1214V71.1632L86.0229 71.0724V71.0272C85.8044 70.3892 85.4426 69.8073 84.9641 69.3248C84.4857 68.8423 83.9031 68.4713 83.2588 68.2393H83.2162L83.1132 68.5181H83.1558C83.7576 68.7339 84.302 69.0801 84.7484 69.5309C85.195 69.9816 85.5322 70.5252 85.7351 71.1214Z" fill="white"/>
<path d="M85.7031 73.8046C85.4878 74.3938 85.141 74.9284 84.688 75.3691C84.235 75.81 83.6872 76.1459 83.0848 76.3521H83.0386L83.138 76.6311H83.1807C83.8266 76.4109 84.414 76.0514 84.8998 75.5792C85.3855 75.107 85.7571 74.5339 85.9874 73.9023V73.8603L85.6996 73.7593L85.7031 73.8046Z" fill="white"/>
<path d="M77.688 73.7313V73.686L77.4004 73.7801V73.8253C77.6223 74.4766 77.9942 75.0692 78.487 75.5569C78.9798 76.0445 79.5806 76.4144 80.2425 76.6379H80.2852L80.3846 76.3556H80.342C79.7242 76.1469 79.1636 75.8017 78.7035 75.3466C78.2432 74.8916 77.8959 74.339 77.688 73.7313Z" fill="white"/>
<path d="M77.7061 71.0481C77.9238 70.4392 78.2821 69.8881 78.7528 69.4376C79.2237 68.9872 79.7944 68.6498 80.4204 68.4517H80.4666L80.3742 68.1694H80.328C79.6574 68.3828 79.0458 68.7455 78.5417 69.2292C78.0376 69.7129 77.6544 70.3044 77.4219 70.9575V70.9993L77.7061 71.0968V71.0481Z" fill="white"/>
<defs>
<linearGradient id="paint0_linear_1744_43795" x1="93.9091" y1="133.257" x2="7.50764" y2="-0.39451" gradientUnits="userSpaceOnUse">
<stop offset="0.256106" stop-color="#17191C"/>
<stop offset="1" stop-color="#393F47"/>
</linearGradient>
<linearGradient id="paint1_linear_1744_43795" x1="32.0312" y1="106.2" x2="37.1907" y2="77.8454" gradientUnits="userSpaceOnUse">
<stop stop-color="#6BE2B7" stop-opacity="0.75"/>
<stop offset="0.941895" stop-color="#377ED7" stop-opacity="0"/>
</linearGradient>
<linearGradient id="paint2_linear_1744_43795" x1="34.2666" y1="16.5348" x2="71.7335" y2="79.7601" gradientUnits="userSpaceOnUse">
<stop stop-color="#6BE2B7" stop-opacity="0.75"/>
<stop offset="0.941895" stop-color="#377ED7" stop-opacity="0"/>
</linearGradient>
<linearGradient id="paint3_linear_1744_43795" x1="34.2666" y1="16.5348" x2="71.7335" y2="79.7601" gradientUnits="userSpaceOnUse">
<stop stop-color="#6BE2B7" stop-opacity="0.75"/>
<stop offset="0.941895" stop-color="#377ED7" stop-opacity="0"/>
</linearGradient>
<linearGradient id="paint4_linear_1744_43795" x1="34.2666" y1="16.5348" x2="71.7335" y2="79.7601" gradientUnits="userSpaceOnUse">
<stop stop-color="#6BE2B7" stop-opacity="0.75"/>
<stop offset="0.941895" stop-color="#377ED7" stop-opacity="0"/>
</linearGradient>
<linearGradient id="paint5_linear_1744_43795" x1="34.2666" y1="16.5348" x2="71.7335" y2="79.7601" gradientUnits="userSpaceOnUse">
<stop stop-color="#6BE2B7" stop-opacity="0.75"/>
<stop offset="0.941895" stop-color="#377ED7" stop-opacity="0"/>
</linearGradient>
<linearGradient id="paint6_linear_1744_43795" x1="34.2666" y1="16.5348" x2="71.7335" y2="79.7601" gradientUnits="userSpaceOnUse">
<stop stop-color="#6BE2B7" stop-opacity="0.75"/>
<stop offset="0.941895" stop-color="#377ED7" stop-opacity="0"/>
</linearGradient>
<linearGradient id="paint7_linear_1744_43795" x1="34.2666" y1="16.5348" x2="71.7335" y2="79.7601" gradientUnits="userSpaceOnUse">
<stop stop-color="#6BE2B7" stop-opacity="0.75"/>
<stop offset="0.941895" stop-color="#377ED7" stop-opacity="0"/>
</linearGradient>
<linearGradient id="paint8_linear_1744_43795" x1="34.2666" y1="16.5348" x2="71.7335" y2="79.7601" gradientUnits="userSpaceOnUse">
<stop stop-color="#6BE2B7" stop-opacity="0.75"/>
<stop offset="0.941895" stop-color="#377ED7" stop-opacity="0"/>
</linearGradient>
<linearGradient id="paint9_linear_1744_43795" x1="34.2666" y1="16.5348" x2="71.7335" y2="79.7601" gradientUnits="userSpaceOnUse">
<stop stop-color="#6BE2B7" stop-opacity="0.75"/>
<stop offset="0.941895" stop-color="#377ED7" stop-opacity="0"/>
</linearGradient>
<linearGradient id="paint10_linear_1744_43795" x1="34.2666" y1="16.5348" x2="71.7335" y2="79.7601" gradientUnits="userSpaceOnUse">
<stop stop-color="#6BE2B7" stop-opacity="0.75"/>
<stop offset="0.941895" stop-color="#377ED7" stop-opacity="0"/>
</linearGradient>
<linearGradient id="paint11_linear_1744_43795" x1="34.2666" y1="16.5348" x2="71.7335" y2="79.7601" gradientUnits="userSpaceOnUse">
<stop stop-color="#6BE2B7" stop-opacity="0.75"/>
<stop offset="0.941895" stop-color="#377ED7" stop-opacity="0"/>
</linearGradient>
<linearGradient id="paint12_linear_1744_43795" x1="34.2666" y1="16.5348" x2="71.7335" y2="79.7601" gradientUnits="userSpaceOnUse">
<stop stop-color="#6BE2B7" stop-opacity="0.75"/>
<stop offset="0.941895" stop-color="#377ED7" stop-opacity="0"/>
</linearGradient>
<linearGradient id="paint13_linear_1744_43795" x1="34.2666" y1="16.5348" x2="71.7335" y2="79.7601" gradientUnits="userSpaceOnUse">
<stop stop-color="#6BE2B7" stop-opacity="0.75"/>
<stop offset="0.941895" stop-color="#377ED7" stop-opacity="0"/>
</linearGradient>
<linearGradient id="paint14_linear_1744_43795" x1="34.2666" y1="16.5348" x2="71.7335" y2="79.7601" gradientUnits="userSpaceOnUse">
<stop stop-color="#6BE2B7" stop-opacity="0.75"/>
<stop offset="0.941895" stop-color="#377ED7" stop-opacity="0"/>
</linearGradient>
<linearGradient id="paint15_linear_1744_43795" x1="34.2666" y1="16.5348" x2="71.7335" y2="79.7601" gradientUnits="userSpaceOnUse">
<stop stop-color="#6BE2B7" stop-opacity="0.75"/>
<stop offset="0.941895" stop-color="#377ED7" stop-opacity="0"/>
</linearGradient>
<linearGradient id="paint16_linear_1744_43795" x1="34.2666" y1="16.5348" x2="71.7335" y2="79.7601" gradientUnits="userSpaceOnUse">
<stop stop-color="#6BE2B7" stop-opacity="0.75"/>
<stop offset="0.941895" stop-color="#377ED7" stop-opacity="0"/>
</linearGradient>
<linearGradient id="paint17_linear_1744_43795" x1="34.2666" y1="16.5348" x2="71.7335" y2="79.7601" gradientUnits="userSpaceOnUse">
<stop stop-color="#6BE2B7" stop-opacity="0.75"/>
<stop offset="0.941895" stop-color="#377ED7" stop-opacity="0"/>
</linearGradient>
<linearGradient id="paint18_linear_1744_43795" x1="34.2666" y1="16.5348" x2="71.7335" y2="79.7601" gradientUnits="userSpaceOnUse">
<stop stop-color="#6BE2B7" stop-opacity="0.75"/>
<stop offset="0.941895" stop-color="#377ED7" stop-opacity="0"/>
</linearGradient>
<linearGradient id="paint19_linear_1744_43795" x1="34.2666" y1="16.5348" x2="71.7335" y2="79.7601" gradientUnits="userSpaceOnUse">
<stop stop-color="#6BE2B7" stop-opacity="0.75"/>
<stop offset="0.941895" stop-color="#377ED7" stop-opacity="0"/>
</linearGradient>
<linearGradient id="paint20_linear_1744_43795" x1="34.2666" y1="16.5348" x2="71.7335" y2="79.7601" gradientUnits="userSpaceOnUse">
<stop stop-color="#6BE2B7" stop-opacity="0.75"/>
<stop offset="0.941895" stop-color="#377ED7" stop-opacity="0"/>
</linearGradient>
<linearGradient id="paint21_linear_1744_43795" x1="34.2666" y1="16.5348" x2="71.7335" y2="79.7601" gradientUnits="userSpaceOnUse">
<stop stop-color="#6BE2B7" stop-opacity="0.75"/>
<stop offset="0.941895" stop-color="#377ED7" stop-opacity="0"/>
</linearGradient>
<linearGradient id="paint22_linear_1744_43795" x1="34.2666" y1="16.5348" x2="71.7335" y2="79.7601" gradientUnits="userSpaceOnUse">
<stop stop-color="#6BE2B7" stop-opacity="0.75"/>
<stop offset="0.941895" stop-color="#377ED7" stop-opacity="0"/>
</linearGradient>
<linearGradient id="paint23_linear_1744_43795" x1="34.2666" y1="16.5348" x2="71.7335" y2="79.7601" gradientUnits="userSpaceOnUse">
<stop stop-color="#6BE2B7" stop-opacity="0.75"/>
<stop offset="0.941895" stop-color="#377ED7" stop-opacity="0"/>
</linearGradient>
<linearGradient id="paint24_linear_1744_43795" x1="34.2666" y1="16.5348" x2="71.7335" y2="79.7601" gradientUnits="userSpaceOnUse">
<stop stop-color="#6BE2B7" stop-opacity="0.75"/>
<stop offset="0.941895" stop-color="#377ED7" stop-opacity="0"/>
</linearGradient>
<linearGradient id="paint25_linear_1744_43795" x1="34.2666" y1="16.5348" x2="71.7335" y2="79.7601" gradientUnits="userSpaceOnUse">
<stop stop-color="#6BE2B7" stop-opacity="0.75"/>
<stop offset="0.941895" stop-color="#377ED7" stop-opacity="0"/>
</linearGradient>
<linearGradient id="paint26_linear_1744_43795" x1="34.2666" y1="16.5348" x2="71.7335" y2="79.7601" gradientUnits="userSpaceOnUse">
<stop stop-color="#6BE2B7" stop-opacity="0.75"/>
<stop offset="0.941895" stop-color="#377ED7" stop-opacity="0"/>
</linearGradient>
<linearGradient id="paint27_linear_1744_43795" x1="34.2666" y1="16.5348" x2="71.7335" y2="79.7601" gradientUnits="userSpaceOnUse">
<stop stop-color="#6BE2B7" stop-opacity="0.75"/>
<stop offset="0.941895" stop-color="#377ED7" stop-opacity="0"/>
</linearGradient>
<linearGradient id="paint28_linear_1744_43795" x1="34.2666" y1="16.5348" x2="71.7335" y2="79.7601" gradientUnits="userSpaceOnUse">
<stop stop-color="#6BE2B7" stop-opacity="0.75"/>
<stop offset="0.941895" stop-color="#377ED7" stop-opacity="0"/>
</linearGradient>
<linearGradient id="paint29_linear_1744_43795" x1="34.2666" y1="16.5348" x2="71.7335" y2="79.7601" gradientUnits="userSpaceOnUse">
<stop stop-color="#6BE2B7" stop-opacity="0.75"/>
<stop offset="0.941895" stop-color="#377ED7" stop-opacity="0"/>
</linearGradient>
<linearGradient id="paint30_linear_1744_43795" x1="34.2666" y1="16.5348" x2="71.7335" y2="79.7601" gradientUnits="userSpaceOnUse">
<stop stop-color="#6BE2B7" stop-opacity="0.75"/>
<stop offset="0.941895" stop-color="#377ED7" stop-opacity="0"/>
</linearGradient>
<linearGradient id="paint31_linear_1744_43795" x1="34.2666" y1="16.5348" x2="71.7335" y2="79.7601" gradientUnits="userSpaceOnUse">
<stop stop-color="#6BE2B7" stop-opacity="0.75"/>
<stop offset="0.941895" stop-color="#377ED7" stop-opacity="0"/>
</linearGradient>
<linearGradient id="paint32_linear_1744_43795" x1="34.2666" y1="16.5348" x2="71.7335" y2="79.7601" gradientUnits="userSpaceOnUse">
<stop stop-color="#6BE2B7" stop-opacity="0.75"/>
<stop offset="0.941895" stop-color="#377ED7" stop-opacity="0"/>
</linearGradient>
</defs>
</svg>
