<svg width="29" height="29" viewBox="0 0 29 29" fill="none" xmlns="http://www.w3.org/2000/svg">
<rect x="0.5" y="0.761719" width="28" height="28" rx="14" fill="#00BC77"/>
<path fill-rule="evenodd" clip-rule="evenodd" d="M16.0988 16.3473C16.0067 16.3544 15.5307 16.3835 14.4691 16.3835C13.6247 16.3835 13.0252 16.3576 12.8149 16.3473C9.55167 16.2002 7.11598 15.6181 7.11598 14.9212C7.11598 14.2242 9.55167 13.6429 12.8149 13.4935V15.7676C13.0283 15.7833 13.6393 15.8203 14.4837 15.8203C15.4969 15.8203 16.0043 15.777 16.0957 15.7684V13.495C19.352 13.6437 21.7823 14.2258 21.7823 14.9212C21.7823 15.6166 19.3527 16.1987 16.0957 16.3465L16.0988 16.3473ZM16.0988 13.2598V11.2248H20.6431V8.12158H8.2705V11.2248H12.8141V13.259C9.12103 13.4329 6.34375 14.1825 6.34375 15.0809C6.34375 15.9792 9.12103 16.7281 12.8141 16.9027V23.4238H16.098V16.9003C19.7826 16.7265 22.5553 15.9776 22.5553 15.0801C22.5553 14.1825 19.7849 13.4337 16.098 13.259L16.0988 13.2598Z" fill="white"/>
</svg>
