<svg width="80" height="81" viewBox="0 0 80 81" fill="none" xmlns="http://www.w3.org/2000/svg">
<rect y="0.307617" width="80" height="80" rx="16" fill="#4091DC" fill-opacity="0.1"/>
<path d="M36.8061 33.7799C41.8029 34.5566 45.7507 38.5043 46.5273 43.5012C50.4001 42.7836 53.333 39.3881 53.333 35.3075C53.333 30.7052 49.602 26.9742 44.9997 26.9742C40.9191 26.9742 37.5236 29.9071 36.8061 33.7799ZM33.4368 33.7446C34.2005 28.0403 39.0863 23.6409 44.9997 23.6409C51.443 23.6409 56.6663 28.8642 56.6663 35.3075C56.6663 41.2209 52.2669 46.1067 46.5626 46.8704C45.7989 52.5748 40.913 56.9742 34.9997 56.9742C28.5564 56.9742 23.333 51.7509 23.333 45.3075C23.333 39.3942 27.7325 34.5084 33.4368 33.7446ZM34.9997 53.6409C39.602 53.6409 43.333 49.9099 43.333 45.3075C43.333 40.7052 39.602 36.9742 34.9997 36.9742C30.3973 36.9742 26.6663 40.7052 26.6663 45.3075C26.6663 49.9099 30.3973 53.6409 34.9997 53.6409ZM34.9997 48.6409C33.1587 48.6409 31.6663 47.1485 31.6663 45.3075C31.6663 43.4666 33.1587 41.9742 34.9997 41.9742C36.8406 41.9742 38.333 43.4666 38.333 45.3075C38.333 47.1485 36.8406 48.6409 34.9997 48.6409ZM53.333 50.3075C53.333 49.3871 54.0792 48.6409 54.9997 48.6409C55.9202 48.6409 56.6663 49.3871 56.6663 50.3075V51.9742C56.6663 54.7356 54.4278 56.9742 51.6663 56.9742H49.9997C49.0792 56.9742 48.333 56.228 48.333 55.3075C48.333 54.3871 49.0792 53.6409 49.9997 53.6409H51.6663C52.5868 53.6409 53.333 52.8947 53.333 51.9742V50.3075ZM29.9997 23.6409C30.9201 23.6409 31.6663 24.3871 31.6663 25.3075C31.6663 26.228 30.9201 26.9742 29.9997 26.9742H28.333C27.4125 26.9742 26.6663 27.7204 26.6663 28.6409V30.3075C26.6663 31.228 25.9201 31.9742 24.9997 31.9742C24.0792 31.9742 23.333 31.228 23.333 30.3075V28.6409C23.333 25.8794 25.5716 23.6409 28.333 23.6409H29.9997Z" fill="#0084FF"/>
</svg>
